<?xml version="1.0" encoding="utf-8"?>
<!-- Generator: Adobe Illustrator 26.0.3, SVG Export Plug-In . SVG Version: 6.00 Build 0)  -->
<svg version="1.1" id="Livello_1" xmlns="http://www.w3.org/2000/svg" xmlns:xlink="http://www.w3.org/1999/xlink" x="0px" y="0px"
	 viewBox="0 0 640 512" style="enable-background:new 0 0 640 512;" xml:space="preserve">
<style type="text/css">
	.st0{fill:#16C8F2;}
</style>
<path class="st0" d="M175.1,164.7V72c0-4.4,4.5-8,8-8c5.3,0,8,3.6,8,8v112c0,4.4-2.7,8-8,8h-112c-3.5,0-8-3.6-8-8s4.5-8,8-8h93.6
	L2.3,13.7c-3.1-3.1-3.1-8.2,0-11.3c3.1-3.1,8.2-3.1,11.3,0L175.1,164.7z M626.3,2.3c3.2-3.1,8.2-3.1,11.4,0c3.1,3.1,3.1,8.2,0,11.3
	L475.3,175.1H568c4.4,0,8,4.5,8,8c0,5.3-3.6,8-8,8H456c-4.4,0-8-2.7-8-8v-112c0-3.5,3.6-8,8-8s8,4.5,8,8v93.6L626.3,2.3z M223.1,256
	c0-53.9,43-96,96-96c53.9,0,96.9,42.1,96.9,96c0,53-43,96-96.9,96C266.1,352,223.1,309,223.1,256z M319.1,336
	c45.1,0,80.9-35.8,80.9-80s-35.8-80-80.9-80c-43.3,0-80,35.8-80,80S275.8,336,319.1,336z M456,448c-4.4,0-8-3.6-8-8V328
	c0-4.4,3.6-8,8-8h112c4.4,0,8,3.6,8,8s-3.6,8-8,8h-92.7l162.4,162.3c3.1,3.2,3.1,8.2,0,11.4c-3.2,3.1-8.2,3.1-11.4,0L464,347.3V440
	C464,444.4,460.4,448,456,448L456,448z M175.1,440v-92.7L13.7,509.7c-3.1,3.1-8.2,3.1-11.3,0c-3.1-3.2-3.1-8.2,0-11.4L164.7,336
	H71.1c-3.5,0-8-3.6-8-8s4.5-8,8-8h112c5.3,0,8,3.6,8,8v112c0,4.4-2.7,8-8,8C179.6,448,175.1,444.4,175.1,440z"/>
</svg>
