<?xml version="1.0" encoding="utf-8"?>
<!-- Generator: Adobe Illustrator 26.0.3, SVG Export Plug-In . SVG Version: 6.00 Build 0)  -->
<svg version="1.1" id="Livello_1" xmlns="http://www.w3.org/2000/svg" xmlns:xlink="http://www.w3.org/1999/xlink" x="0px" y="0px"
	 viewBox="0 0 448 512" style="enable-background:new 0 0 448 512;" xml:space="preserve">
<style type="text/css">
	.st0{fill:#16C8F2;}
</style>
<path class="st0" d="M232,424V312c0-4.4-3.6-8-8-8s-8,3.6-8,8v112c0,4.4,3.6,8,8,8S232,428.4,232,424z M393.8,224h-12.9
	c-9.1-19.4-28-32-48.6-32h-15.4c-7.2,0-13.9,1.2-20.1,3.5c-10.1-12.3-25.2-19.5-41.4-19.5h-8.6c-7.9,0-15.7,1.8-22.8,5.1V56
	c0-30.9-25.1-56-56-56s-56,25.1-56,56v288c0,4.4,3.6,8,8,8s8-3.6,8-8V56c0-22.1,17.9-40,40-40s40,17.9,40,40v139.1c0,5.3,4.5,8,8,8
	c7.1,0,11.3-11.1,30.8-11.1h8.6c13.1,0,25.1,6.7,32.2,17.8c1.5,2.4,4.1,3.7,6.7,3.7c5,0,7.9-5.5,22.6-5.5h15.4
	c15.6,0,30.3,11.1,35.8,26.9c1.1,3.1,4,5.4,7.1,5.4c0.3,0,0.6,0,1-0.1c0,0,2.3-0.2,2.3-0.2h15.3c21,0,38.2,17.1,38.2,38.2V381
	c0,63.4-51.6,115.1-115.1,115.1H224c-42.5,0-85.5-20.7-109.8-53l-91-113.5c-4.7-6.3-7.2-13.8-7.2-21.5c0-29.4,27-36.1,35.9-36.1
	c24.4,0,26.3,17.6,35.2,17.6c4.6,0,8-3.7,8-8c0-7.5-18.6-25.6-43.2-25.6c-29.1,0-52,23.7-52,52.1c0,11.2,3.6,22,10.6,31.3l91,113.4
	c27,36,75,59.2,122.4,59.2h92.9c72.3,0,131.1-58.8,131.1-131.1V278.2C447.1,248.3,423.7,224,393.8,224z M296,424V312
	c0-4.4-3.6-8-8-8s-8,3.6-8,8v112c0,4.4,3.6,8,8,8S296,428.4,296,424z M360,424V312c0-4.4-3.6-8-8-8s-8,3.6-8,8v112c0,4.4,3.6,8,8,8
	S360,428.4,360,424z"/>
</svg>
