<?xml version="1.0" encoding="utf-8"?>
<!-- Generator: Adobe Illustrator 26.0.3, SVG Export Plug-In . SVG Version: 6.00 Build 0)  -->
<svg version="1.1" id="Livello_1" xmlns="http://www.w3.org/2000/svg" xmlns:xlink="http://www.w3.org/1999/xlink" x="0px" y="0px"
	 viewBox="0 0 512 512" style="enable-background:new 0 0 512 512;" xml:space="preserve">
<style type="text/css">
	.st0{fill:#16C8F2;}
</style>
<path class="st0" d="M498.1,5.6C492.7,1.9,486.4,0,480,0c-5.5,0-10.9,1.4-15.9,4.2l-448,255.1c-10.6,7-16.8,18.5-16.1,29.8
	s8.4,22.9,19.6,27.5l103.2,43l61.8,146.5c0.8,1.9,2.2,3.5,4.1,4.3c1.1,1.3,2.1,1.5,2.3,1.5c2,0,4-0.8,5.6-2.2l85.8-82.4l120.4,50.2
	c4,1.7,8.1,2.5,12.3,2.5c5.4,0,10.8-1.4,15.7-4.1c8.6-4.8,14.5-13.3,16-23l64-415.1C513.5,24.7,508.3,12.6,498.1,5.6z M16,289
	c-0.4-6.1,2.7-11.8,8-14.9l448-256c0.8-0.5,1.8-0.4,2.7-0.7L124.8,344l-99-41.2C20.2,300.4,16.4,295,16,289z M411.5,98.3L185.8,379
	c-1.2,1.4-1.8,3.2-1.8,5v80.4l-46.4-110.3L411.5,98.3z M200,485.2v-92.5l67.2,28L200,485.2z M431.8,450.4c-0.8,4.9-3.7,9.1-8,11.5
	c-2.4,1.4-5.1,2.1-7.8,2.1c-2.1,0-4.2-0.4-6.2-1.2l-202.9-84.6L492.5,23.1c2.4,3.3,3.9,7.2,3.2,11.3L431.8,450.4z"/>
</svg>
