<?xml version="1.0" encoding="utf-8"?>
<!-- Generator: Adobe Illustrator 26.0.3, SVG Export Plug-In . SVG Version: 6.00 Build 0)  -->
<svg version="1.1" id="Livello_1" xmlns="http://www.w3.org/2000/svg" xmlns:xlink="http://www.w3.org/1999/xlink" x="0px" y="0px"
	 viewBox="0 0 512 512" style="enable-background:new 0 0 512 512;" xml:space="preserve">
<style type="text/css">
	.st0{fill:#16C8F2;}
</style>
<path class="st0" d="M456,0H312c-13.3,0-24,10.7-24,24v24c0,13.2,10.8,24,24,24h16c13.3,0,24,10.7,24,24c0,13.2-10.8,24-24,24h-16
	c-13.3,0-24,10.7-24,24v32c0,13.2,10.8,24,24,24h40v16c0,22.1,17.9,40,40,40s40-17.9,40-40v-16h56c13.3,0,24-10.7,24-24V56
	C512,25.1,486.9,0,456,0z M496,176c0,4.4-3.6,8-8,8h-64c-4.4,0-8,3.6-8,8v24c0,13.2-10.8,24-24,24s-24-10.7-24-24v-24
	c0-4.4-3.6-8-8-8h-48c-4.4,0-8-3.6-8-8v-32c0-4.4,3.6-8,8-8h16c22.1,0,40-17.9,40-40s-17.9-40-40-40h-16c-4.4,0-8-3.6-8-8V24
	c0-4.4,3.6-8,8-8h144c22.1,0,40,17.9,40,40V176z M424,280h-72c-4.4,0-8,3.6-8,8v32c0,13.2-10.8,24-24,24s-24-10.8-24-24v-32
	c0-4.4-3.6-8-8-8h-56V88c0-13.3-10.7-24-24-24H56C25.1,64,0,89.1,0,120v336c0,30.9,25.1,56,56,56h336c30.9,0,56-25.1,56-56V304
	C448,290.7,437.3,280,424,280z M16,120c0-22.1,17.9-40,40-40h152c4.4,0,8,3.6,8,8v192h-48v-24c0-22.1-17.9-40-40-40s-40,17.9-40,40
	v24H16V120z M216,496H56c-22.1,0-40-17.9-40-40V296h80c4.4,0,8-3.6,8-8v-32c0-13.3,10.8-24,24-24s24,10.7,24,24v32c0,4.4,3.6,8,8,8
	h56v48h-24c-22.1,0-40,17.9-40,40s17.9,40,40,40h24V496z M432,456c0,22.1-17.9,40-40,40H232v-80c0-4.4-3.6-8-8-8h-32
	c-13.2,0-24-10.8-24-24s10.7-24,24-24h32c4.4,0,8-3.6,8-8v-56h48v24c0,22.1,17.9,40,40,40s40-17.9,40-40v-24h64c4.4,0,8,3.6,8,8V456
	z"/>
</svg>
