<?xml version="1.0" encoding="utf-8"?>
<!-- Generator: Adobe Illustrator 26.0.3, SVG Export Plug-In . SVG Version: 6.00 Build 0)  -->
<svg version="1.1" id="Livello_1" xmlns="http://www.w3.org/2000/svg" xmlns:xlink="http://www.w3.org/1999/xlink" x="0px" y="0px"
	 viewBox="0 0 512 512" style="enable-background:new 0 0 512 512;" xml:space="preserve">
<style type="text/css">
	.st0{fill:#16C8F2;}
</style>
<path class="st0" d="M510,34.8c2.9,3.3,2.6,8.4-0.8,11.3l-184,160c-3.1,2.8-7.9,2.6-10.9-0.3l-122.9-123L12.9,222.3
	c-3.5,2.7-8.5,2.1-11.2-1.4c-2.7-3.4-2.1-8.5,1.4-11.2l184-144c3.2-2.5,7.7-2.2,10.6,0.6l122.7,122.8L498.7,34
	C502.1,31.1,507.1,31.4,510,34.8L510,34.8z M95.1,352v96c0,17.7-13.4,32-32,32c-16.8,0-32-14.3-32-32v-96c0-17.7,15.2-32.9,32-32.9
	C81.7,319.1,95.1,334.3,95.1,352z M79.1,448v-96c0-8.8-6.3-16-16-16c-7.9,0-16,7.2-16,16v96c0,8.8,8.1,16,16,16
	C72.8,464,79.1,456.8,79.1,448z M159.1,255.1c0-16.8,15.2-32,32-32c18.6,0,32,15.2,32,32V448c0,17.7-13.4,32-32,32
	c-16.8,0-32-14.3-32-32V255.1z M175.1,255.1V448c0,8.8,8.1,16,16,16c9.7,0,16-7.2,16-16V255.1c0-7.9-6.3-16-16-16
	C183.2,239.1,175.1,247.2,175.1,255.1z M352,319.1V448c0,17.7-14.3,32-32,32s-32-14.3-32-32V319.1c0-16.8,14.3-32,32-32
	S352,302.3,352,319.1z M336,448V319.1c0-7.9-7.2-16-16-16s-16,8.1-16,16V448c0,8.8,7.2,16,16,16S336,456.8,336,448z M416,255.1
	c0-16.8,14.3-32,32-32s32,15.2,32,32V448c0,17.7-14.3,32-32,32s-32-14.3-32-32V255.1z M432,255.1V448c0,8.8,7.2,16,16,16
	s16-7.2,16-16V255.1c0-7.9-7.2-16-16-16S432,247.2,432,255.1z"/>
</svg>
