<?xml version="1.0" encoding="utf-8"?>
<!-- Generator: Adobe Illustrator 26.0.3, SVG Export Plug-In . SVG Version: 6.00 Build 0)  -->
<svg version="1.1" id="Livello_1" xmlns="http://www.w3.org/2000/svg" xmlns:xlink="http://www.w3.org/1999/xlink" x="0px" y="0px"
	 viewBox="0 0 640 512" style="enable-background:new 0 0 640 512;" xml:space="preserve">
<style type="text/css">
	.st0{fill:#16C8F2;}
</style>
<path class="st0" d="M160,64c0-35.3,28.7-64,64-64s64,28.6,64,64c0,22.3-11.4,41.1-28.7,53.4l37.4,81.7c12.2-4.6,25.5-7.1,39.3-7.1
	c34.5,0,65.4,15.6,85.1,40.2l100-71.3c-5.8-9.6-9.1-20.9-9.1-32.9c0-35.3,28.7-64,64-64s64,28.7,64,64c0,35.3-28.7,64-64,64
	c-17.6,0-33.5-7.1-45.9-18.5l-98.8,71.7c10.6,17.1,16.7,37.2,16.7,57.9c0,19.1-4.3,36.3-12.1,51.5l89.8,53.9
	c11.7-14.9,29.9-24.5,50.3-24.5c35.3,0,64,28.7,64,64s-28.7,64-64,64s-64-28.7-64-64c0-9.2,1.9-17.9,5.4-25.8l-89.7-53.9
	C407.4,397.2,373.9,416,336,416c-59.2,0-107.6-45.9-111.7-104.9h-96.8C123.6,343.6,96.6,368,64,368c-35.3,0-64-28.7-64-64.9
	c0-34.4,28.6-64,64-64c32.6,0,59.6,25.3,63.5,56h96.8c2.7-38.1,25.4-71.5,57.9-89.3l-37.3-81.3c-6.5,2.3-13.6,2.6-20.9,2.6
	c-35.3,0-64-27.8-64-64V64z M224,112c26.5,0,48-21.5,48-48s-21.5-48-48-48s-48,21.5-48,48S197.5,112,224,112z M16,304
	c0,26.5,21.5,48,48,48s48-21.5,48-48s-21.5-48-48-48S16,277.5,16,304z M576,496c26.5,0,48-21.5,48-48s-21.5-48-48-48
	c-14.6,0-27.7,6.5-36.5,16.8l0.6,0.3l-8.2,13.8l-0.6-0.4c-2.1,5.4-3.3,11.3-3.3,17.5C528,474.5,549.5,496,576,496L576,496z M576,176
	c26.5,0,48-21.5,48-48s-21.5-48-48-48s-48,21.5-48,48S549.5,176,576,176z M336,400c53,0,96-43,96-96c0-53.9-43-96-96-96
	c-53.9,0-96,42.1-96,96C240,357,282.1,400,336,400z"/>
</svg>
