<svg xmlns="http://www.w3.org/2000/svg" viewBox="0 0 1419.03 1394.26"><defs><style>.cls-1{fill:none;stroke:#fff;stroke-miterlimit:10;stroke-width:3px;}</style></defs><g id="Livello_2" data-name="Livello 2"><g id="Livello_1-2" data-name="Livello 1"><path class="cls-1" d="M1335.13,62.44A42.52,42.52,0,0,1,1353,51.74a39.15,39.15,0,0,1,21.41-.39,39.85,39.85,0,0,1,12,5.28,12.21,12.21,0,0,0,16.25-3.15L1415,37.12a12.44,12.44,0,0,0-2.08-17.19A82.06,82.06,0,0,0,1380.51,4a88.67,88.67,0,0,0-44.79.79,85.93,85.93,0,0,0-38.24,22.4q-19,19-24.37,39.82t2.58,42.61q7.92,21.78,29.72,43.58L1344.25,192q13.47,13.47,13.46,28.14t-9.9,24.57a35.46,35.46,0,0,1-25,10.7q-14.65.39-26.95-11.89l-40-40s0,0,0-.05l-84.35-84.36q-17.44-17.44-39-22.79a83,83,0,0,0-42.2.2,79.4,79.4,0,0,0-36.06,21q-18.24,18.22-22.79,39a72.32,72.32,0,0,0,3.37,41.8q7.92,21,27.34,40.42L1103,279.67q9.11,9.12,11.89,19.42a34.24,34.24,0,0,1-.2,19.62,40.3,40.3,0,0,1-10.1,16.44,42.49,42.49,0,0,1-17.84,10.7,38.94,38.94,0,0,1-20.74.55,80.18,80.18,0,0,0-13.41-5.86,11.51,11.51,0,0,0-4.65-1.38c-.69-.18-1.38-.36-2.07-.52a88.67,88.67,0,0,0-44.79.79,86,86,0,0,0-38.24,22.39q-19,19-24.37,39.83T941,444.26Q949,466,970.76,487.84l38.84,38.84q13.47,13.47,13.47,28.13t-9.91,24.58a35.46,35.46,0,0,1-25,10.7q-14.66.39-27-11.89l-40-40s0,0,0-.05l-84.35-84.36q-17.45-17.44-39-22.79a83,83,0,0,0-42.2.2,79.4,79.4,0,0,0-36.06,21q-18.24,18.22-22.79,39t3.37,41.8q7.92,21,27.34,40.42l40.82,40.82q9.1,9.12,11.89,19.42a34.2,34.2,0,0,1-.2,19.61,40.34,40.34,0,0,1-10.1,16.45,42.52,42.52,0,0,1-17.83,10.7,39.25,39.25,0,0,1-21.41.4,40.36,40.36,0,0,1-12-5.28,11.42,11.42,0,0,0-3.33-1.46A79.13,79.13,0,0,0,694.49,666a88.78,88.78,0,0,0-44.79.78,86,86,0,0,0-38.24,22.4q-19,19-24.37,39.83t2.58,42.6q7.92,21.79,29.72,43.59L658.23,854q13.47,13.49,13.46,28.14t-9.9,24.58a35.46,35.46,0,0,1-25,10.7q-14.66.38-27-11.9l-40-40s0,0,0-.05l-84.35-84.35q-17.44-17.45-39-22.79a83,83,0,0,0-42.2.2,79.38,79.38,0,0,0-36.06,21q-18.24,18.24-22.79,39t3.37,41.81q7.92,21,27.34,40.42L417,941.69q9.1,9.1,11.89,19.41a34.23,34.23,0,0,1-.2,19.62,40.34,40.34,0,0,1-10.1,16.45,42.49,42.49,0,0,1-17.84,10.7,39,39,0,0,1-20.74.55,80.18,80.18,0,0,0-13.41-5.86,11.53,11.53,0,0,0-4.65-1.39l-2.07-.51a88.67,88.67,0,0,0-44.79.78,86,86,0,0,0-38.24,22.4q-19,19-24.37,39.83t2.58,42.6q7.92,21.8,29.72,43.59l38.84,38.83q13.47,13.49,13.47,28.14t-9.91,24.58a35.46,35.46,0,0,1-25,10.7q-14.65.38-26.95-11.9l-40-40s0,0,0,0l-84.35-84.35q-17.44-17.44-39-22.79a83,83,0,0,0-42.2.2,79.38,79.38,0,0,0-36.06,21q-18.24,18.24-22.79,39t3.37,41.81q7.92,21,27.34,40.42l40.82,40.82q9.1,9.11,11.89,19.41a34.23,34.23,0,0,1-.2,19.62,40.4,40.4,0,0,1-10.1,16.45,42.5,42.5,0,0,1-17.83,10.69,39.06,39.06,0,0,1-21.41.4,39.85,39.85,0,0,1-12-5.28,12.22,12.22,0,0,0-16.25,3.14L4,1357.14a12.43,12.43,0,0,0,2.08,17.19,82,82,0,0,0,32.41,15.94,88.63,88.63,0,0,0,44.78-.79,85.91,85.91,0,0,0,38.25-22.4q19-19,24.37-39.82t-2.58-42.61q-7.93-21.78-29.73-43.59l-38.83-38.83q-13.48-13.47-13.47-28.14t9.91-24.57a35.46,35.46,0,0,1,25-10.7q14.66-.39,26.95,11.89l40,40s0,0,0,0l84.35,84.36q17.44,17.45,39,22.79a83,83,0,0,0,42.2-.2,79.43,79.43,0,0,0,36.07-21q18.22-18.23,22.78-39t-3.36-41.8q-7.92-21-27.34-40.43l-40.82-40.81q-9.12-9.12-11.89-19.42a34.15,34.15,0,0,1,.2-19.62,40.3,40.3,0,0,1,10.1-16.44,42.52,42.52,0,0,1,17.83-10.7,39,39,0,0,1,20.75-.55,79.47,79.47,0,0,0,13.41,5.86,11.51,11.51,0,0,0,4.65,1.38c.68.18,1.38.36,2.07.52a88.63,88.63,0,0,0,44.78-.79,85.91,85.91,0,0,0,38.25-22.4q19-19,24.36-39.82T478,950q-7.94-21.78-29.73-43.58l-38.83-38.84Q395.95,854.11,396,839.45t9.91-24.58a35.46,35.46,0,0,1,25-10.7q14.66-.39,26.95,11.89l40,40s0,0,0,.05l84.35,84.36q17.45,17.44,39,22.79a83,83,0,0,0,42.2-.2,79.43,79.43,0,0,0,36.07-21q18.22-18.22,22.78-39t-3.37-41.8q-7.9-21-27.33-40.42L650.7,779.94q-9.12-9.12-11.9-19.42a34.2,34.2,0,0,1,.21-19.61,40.34,40.34,0,0,1,10.1-16.45,42.52,42.52,0,0,1,17.83-10.7,39.25,39.25,0,0,1,21.41-.4,40.36,40.36,0,0,1,12,5.28,11.37,11.37,0,0,0,3.32,1.46,79.06,79.06,0,0,0,20.85,8.15,88.74,88.74,0,0,0,44.78-.78,86.09,86.09,0,0,0,38.25-22.4q19-19,24.37-39.83t-2.58-42.6q-7.93-21.79-29.73-43.59L760.8,540.21q-13.49-13.47-13.47-28.13t9.91-24.58a35.46,35.46,0,0,1,25-10.7q14.65-.37,26.95,11.89l40,40s0,0,0,.06l84.35,84.35q17.44,17.45,39,22.79a83,83,0,0,0,42.2-.2,79.41,79.41,0,0,0,36.07-21q18.23-18.24,22.78-39t-3.36-41.81q-7.92-21-27.34-40.42l-40.82-40.82q-9.12-9.12-11.89-19.42a34.12,34.12,0,0,1,.2-19.61,40.34,40.34,0,0,1,10.1-16.45,42.52,42.52,0,0,1,17.83-10.7,39,39,0,0,1,20.75-.55,79.47,79.47,0,0,0,13.41,5.86,11.53,11.53,0,0,0,4.65,1.39c.68.18,1.38.35,2.07.51a88.75,88.75,0,0,0,44.78-.78,86.09,86.09,0,0,0,38.25-22.4q19-19,24.36-39.83T1164,288q-7.93-21.8-29.73-43.59l-38.83-38.83Q1082,192.09,1082,177.43t9.91-24.58a35.46,35.46,0,0,1,25-10.7q14.65-.37,27,11.9l40,40s0,0,0,0l84.35,84.35q17.44,17.44,39,22.79a83,83,0,0,0,42.2-.2,79.41,79.41,0,0,0,36.07-21q18.22-18.24,22.78-39t-3.37-41.81q-7.9-21-27.33-40.42l-40.82-40.82q-9.12-9.11-11.9-19.41a34.23,34.23,0,0,1,.21-19.62A40.34,40.34,0,0,1,1335.13,62.44Z"/></g></g></svg>