<svg xmlns="http://www.w3.org/2000/svg" xmlns:xlink="http://www.w3.org/1999/xlink" viewBox="0 0 17.15 24.4"><defs><style>.cls-1{fill:url(#Sfumatura_senza_nome_13);}</style><linearGradient id="Sfumatura_senza_nome_13" y1="12.2" x2="17.15" y2="12.2" gradientUnits="userSpaceOnUse"><stop offset="0" stop-color="#f6921e"/><stop offset="1" stop-color="#ffbe06"/></linearGradient></defs><g id="Livello_2" data-name="Livello 2"><g id="Livello_1-2" data-name="Livello 1"><g id="N1dtKn.tif"><path class="cls-1" d="M11.57,24.4a17.63,17.63,0,0,0,1.34-1.73,4.86,4.86,0,0,0,.56-3.37,7.86,7.86,0,0,0-1.86-3.58A8.41,8.41,0,0,1,10.1,13.2a19.75,19.75,0,0,1-.46-2c0-.14,0-.28-.07-.48a6.53,6.53,0,0,0-1.45,1.53,9,9,0,0,0-1.41,6.1,2.61,2.61,0,0,1,0,.48,2.46,2.46,0,0,1-.47-.2,3,3,0,0,1-1.17-2.4c0-.16,0-.31,0-.47l-.1,0c-.17.31-.35.61-.5.92a7.73,7.73,0,0,0-.83,4.11A4.73,4.73,0,0,0,5.26,24l.07.06.24.26a1.06,1.06,0,0,1-.28,0A8.59,8.59,0,0,1,.68,19.67a8.85,8.85,0,0,1-.49-5.28A10.28,10.28,0,0,1,2.12,10.3C2.94,9.2,3.79,8.12,4.58,7A10.23,10.23,0,0,0,6.44,2.47c.09-.71.12-1.44.17-2.16C6.64,0,6.7-.07,7,.1a12.5,12.5,0,0,1,4.66,4.75A11.37,11.37,0,0,1,13,10.53c0,.12,0,.24,0,.43a3.49,3.49,0,0,0,1.52-2.61h.1c.27.5.56,1,.81,1.48a15.63,15.63,0,0,1,1.25,3.32,10.46,10.46,0,0,1,.13,5.44A8.43,8.43,0,0,1,12.38,24C12.13,24.16,11.87,24.26,11.57,24.4Z"/></g></g></g></svg>