<?xml version="1.0" encoding="UTF-8"?>
<svg width="115px" height="50px" viewBox="0 0 115 50" version="1.1" xmlns="http://www.w3.org/2000/svg" xmlns:xlink="http://www.w3.org/1999/xlink">
    <!-- Generator: Sketch 44.1 (41455) - http://www.bohemiancoding.com/sketch -->
    <title>logo_wthite</title>
    <desc>Created with Sketch.</desc>
    <defs></defs>
    <g id="Page-1" stroke="none" stroke-width="1" fill="none" fill-rule="evenodd">
        <g id="Hp_theprocuremen_01_v2" transform="translate(-40.000000, -24.000000)" fill="#FFFFFF">
            <g id="logo_wthite" transform="translate(40.000000, 24.000000)">
                <g id="Group-3">
                    <polygon id="Fill-1" points="58.5152113 0 58.5152113 3.29014085 61.7257746 3.29014085 61.7257746 14.9443662 65.6109859 14.9443662 65.6109859 3.29014085 68.8208451 3.29014085 68.8208451 0"></polygon>
                    <polygon id="Fill-2" points="79.7228873 0 79.7228873 5.76690141 74.1137324 5.76690141 74.1137324 0 70.2299296 0 70.2299296 14.9443662 74.1137324 14.9443662 74.1137324 8.81971831 79.7228873 8.81971831 79.7228873 14.9443662 83.6080986 14.9443662 83.6080986 0"></polygon>
                    <path d="M3.88450704,24.3384507 L4.53873239,24.3384507 C5.94647887,24.3384507 7.33309859,24.3384507 7.33309859,22.5152113 C7.33309859,20.6321127 6.0443662,20.6116901 4.53873239,20.6116901 L3.88450704,20.6116901 L3.88450704,24.3384507 Z M0,17.4807042 L5.94647887,17.4807042 C9.15633803,17.4807042 11.3767606,18.9673239 11.3767606,22.395493 C11.3767606,25.923662 9.47394366,27.4694366 6.08450704,27.4694366 L3.88450704,27.4694366 L3.88450704,32.4243662 L0,32.4243662 L0,17.4807042 Z" id="Fill-3"></path>
                    <path d="M16.9869718,24.1799296 L17.3637324,24.1799296 C18.6320423,24.1799296 20.0588028,23.9419014 20.0588028,22.3165493 C20.0588028,20.6919014 18.6320423,20.453169 17.3637324,20.453169 L16.9869718,20.453169 L16.9869718,24.1799296 Z M25.5299296,32.425 L20.6933099,32.425 L17.0271127,26.6764085 L16.9869718,26.6764085 L16.9869718,32.425 L13.1024648,32.425 L13.1024648,17.4806338 L18.909507,17.4806338 C21.8630282,17.4806338 24.1024648,18.8876761 24.1024648,22.0792254 C24.1024648,24.1397887 22.953169,25.9235915 20.8320423,26.3003521 L25.5299296,32.425 Z" id="Fill-5"></path>
                    <path d="M29.8707042,24.695 C29.8707042,27.2717606 31.7742254,29.1541549 34.0925352,29.1541549 C36.4115493,29.1541549 38.3143662,27.2717606 38.3143662,24.695 C38.3143662,22.6337324 36.4115493,20.7506338 34.0925352,20.7506338 C31.7742254,20.7506338 29.8707042,22.6337324 29.8707042,24.695 M42.3573239,24.6752817 C42.3573239,29.5111972 38.8890141,32.9203521 34.0925352,32.9203521 C29.2967606,32.9203521 25.8284507,29.5111972 25.8284507,24.6752817 C25.8284507,20.1562676 29.7925352,16.9851408 34.0925352,16.9851408 C38.3939437,16.9851408 42.3573239,20.1562676 42.3573239,24.6752817" id="Fill-7"></path>
                    <path d="M54.8459859,22.495 C54.0537324,21.4245775 52.7657042,20.8499296 51.436831,20.8499296 C49.058662,20.8499296 47.4530282,22.673169 47.4530282,24.9921831 C47.4530282,27.3506338 49.0790845,29.0555634 51.4966901,29.0555634 C52.7657042,29.0555634 54.0340141,28.4414789 54.8459859,27.4696479 L54.8459859,32.1266901 C53.5579577,32.5245775 52.6269718,32.8210563 51.4171127,32.8210563 C49.3361268,32.8210563 47.3537324,32.0288028 45.808662,30.6210563 C44.1635915,29.1344366 43.4100704,27.1914789 43.4100704,24.9724648 C43.4100704,22.9316197 44.1833099,20.9689437 45.6100704,19.5020423 C47.0769718,17.9957042 49.1973944,17.0837324 51.2988028,17.0837324 C52.5466901,17.0837324 53.6966901,17.3611972 54.8459859,17.8372535 L54.8459859,22.495 Z" id="Fill-9"></path>
                    <path d="M70.2082394,17.480493 L70.2082394,25.8847183 C70.2082394,27.8065493 70.128662,29.7093662 68.6420423,31.1558451 C67.3941549,32.3854225 65.4314789,32.8206338 63.6871127,32.8206338 C61.9434507,32.8206338 59.9814789,32.3854225 58.7321831,31.1558451 C57.2462676,29.7093662 57.1659859,27.8065493 57.1659859,25.8847183 L57.1659859,17.480493 L61.0511972,17.480493 L61.0511972,25.3488028 C61.0511972,27.2917606 61.1899296,29.4121831 63.6871127,29.4121831 C66.1842958,29.4121831 66.3230282,27.2917606 66.3230282,25.3488028 L66.3230282,17.480493 L70.2082394,17.480493 Z" id="Fill-11"></path>
                    <path d="M76.551831,24.1799296 L76.9292958,24.1799296 C78.1976056,24.1799296 79.623662,23.9419014 79.623662,22.3165493 C79.623662,20.6919014 78.1976056,20.453169 76.9292958,20.453169 L76.551831,20.453169 L76.551831,24.1799296 Z M85.0947887,32.425 L80.2588732,32.425 L76.5919718,26.6764085 L76.551831,26.6764085 L76.551831,32.425 L72.6673239,32.425 L72.6673239,17.4806338 L78.4743662,17.4806338 C81.4285915,17.4806338 83.6673239,18.8876761 83.6673239,22.0792254 C83.6673239,24.1397887 82.5180282,25.9235915 80.3976056,26.3003521 L85.0947887,32.425 Z" id="Fill-13"></path>
                    <polygon id="Fill-15" points="68.3060563 34.9616197 72.1321127 34.9616197 75.1638028 42.9489437 78.3750704 34.9616197 82.2391549 34.9616197 84.4990141 49.9059859 80.6152113 49.9059859 79.5243662 41.3038732 79.4849296 41.3038732 75.8969014 49.9059859 74.3511268 49.9059859 70.9229577 41.3038732 70.8828169 41.3038732 69.6349296 49.9059859 65.7687324 49.9059859"></polygon>
                    <polygon id="Fill-18" points="97.4956338 34.9616197 101.380141 34.9616197 108.495634 44.0982394 108.53507 44.0982394 108.53507 34.9616197 112.419577 34.9616197 112.419577 49.9059859 108.53507 49.9059859 101.419577 40.7489437 101.380141 40.7489437 101.380141 49.9059859 97.4956338 49.9059859"></polygon>
                    <polygon id="Fill-21" points="86.1471831 49.9056338 94.6492958 49.9056338 94.6492958 46.6147887 86.1471831 46.6147887"></polygon>
                    <polygon id="Fill-23" points="86.1471831 44.0788732 94.6492958 44.0788732 94.6492958 40.7887324 86.1471831 40.7887324"></polygon>
                    <polygon id="Fill-24" points="86.1471831 38.2514085 94.6492958 38.2514085 94.6492958 34.9612676 86.1471831 34.9612676"></polygon>
                    <polygon id="Fill-25" points="86.1471831 32.4246479 94.6492958 32.4246479 94.6492958 29.134507 86.1471831 29.134507"></polygon>
                    <polygon id="Fill-26" points="86.1471831 26.5978873 94.6492958 26.5978873 94.6492958 23.3077465 86.1471831 23.3077465"></polygon>
                    <polygon id="Fill-27" points="86.1471831 20.7711268 94.6492958 20.7711268 94.6492958 17.4809859 86.1471831 17.4809859"></polygon>
                    <polygon id="Fill-28" points="86.1471831 14.9443662 94.6492958 14.9443662 94.6492958 11.6542254 86.1471831 11.6542254"></polygon>
                    <polygon id="Fill-29" points="86.1471831 9.11690141 94.6492958 9.11690141 94.6492958 5.82676056 86.1471831 5.82676056"></polygon>
                    <polygon id="Fill-30" points="86.1471831 3.29014085 94.6492958 3.29014085 94.6492958 0 86.1471831 0"></polygon>
                    <path d="M97.5314085,28.5528169 C100.388451,29.0760563 102.681408,26.8225352 102.681408,23.9260563 L102.681408,11.8957746 L98.1750704,11.8957746 L98.1750704,9.64225352 L102.681408,9.64225352 L102.681408,1.99788732 L104.935634,1.99788732 L104.935634,23.9260563 C104.935634,28.4732394 101.595493,31.1683099 97.5314085,30.5640845 L97.5314085,28.5528169 Z" id="Fill-31"></path>
                    <path d="M114.586831,30.5643662 C110.522746,31.1678873 107.18331,28.4728169 107.18331,23.926338 L107.18331,1.99816901 L109.437535,1.99816901 L109.437535,9.64253521 L113.943169,9.64253521 L113.943169,11.8953521 L109.437535,11.8953521 L109.437535,23.926338 C109.437535,26.8228169 111.729789,29.076338 114.586831,28.5530986 L114.586831,30.5643662 Z" id="Fill-32"></path>
                </g>
            </g>
        </g>
    </g>
</svg>