<?xml version="1.0" encoding="utf-8"?>
<!-- Generator: Adobe Illustrator 26.2.1, SVG Export Plug-In . SVG Version: 6.00 Build 0)  -->
<svg version="1.1" id="Layer_1" xmlns="http://www.w3.org/2000/svg" xmlns:xlink="http://www.w3.org/1999/xlink" x="0px" y="0px"
	 viewBox="0 0 212.8 87.7" style="enable-background:new 0 0 212.8 87.7;" xml:space="preserve">
<style type="text/css">
	.st0{fill:#087A9C;}
	.st1{fill:#D43935;}
	.st2{fill:#C6DAE6;}
</style>
<path class="st0" d="M40.1,44.6V30h4.6v3.3c0.6-2,2-3.7,3.7-3.7c0.6,0,1.1,0.1,1.5,0.2v4.4c-0.4-0.1-1-0.2-1.4-0.2
	c-2.2,0-3.3,1.3-3.6,3.6v7H40.1z"/>
<path class="st0" d="M58.7,45c-4.6,0-7.9-3.2-7.9-7.7s3.3-7.8,7.9-7.8c4.5,0,7.8,3.3,7.8,7.8S63.2,45,58.7,45z M58.7,41.2
	c1.6,0,2.8-1.6,2.8-3.9s-1.1-4-2.8-4c-1.6,0-2.8,1.7-2.8,4S57.1,41.2,58.7,41.2z"/>
<path class="st0" d="M75.2,45C71,45,68,41.8,68,37.4c0-4.6,3.1-7.9,7.3-7.9c3.4,0,5.8,1.8,6.8,4.4L78,35.5c-0.4-1.2-1.2-2-2.3-2
	c-1.6,0-2.7,1.6-2.7,3.9c0,2.1,1.1,3.7,2.6,3.7c1.2,0,2-0.8,2.5-2l4.1,1.6C81.2,43.1,78.6,45,75.2,45z"/>
<path class="st0" d="M93.1,44.6v-2.2c-1,1.6-2.5,2.6-4.3,2.6C86,45,84,42.5,84,39.3V30h4.8v8.9c0,1.3,0.8,2.2,1.9,2.2
	c0.9,0,1.7-0.5,2.2-1.2V30h4.8v14.6H93.1z"/>
<path class="st0" d="M100.9,44.6V30h4.6v3.3c0.6-2,2-3.7,3.7-3.7c0.6,0,1.1,0.1,1.5,0.2v4.4c-0.4-0.1-1-0.2-1.4-0.2
	c-2.2,0-3.3,1.3-3.6,3.6v7H100.9z"/>
<path class="st0" d="M119.1,45c-4.4,0-7.4-3.1-7.4-7.5c0-4.6,3.1-8,7.5-8c4,0,6.8,2.7,6.8,6.7c0,0.8-0.1,1.7-0.2,2.1h-9.3
	c0.3,2,1.4,3.2,3,3.2c1.1,0,2.1-0.7,2.8-1.8l3.4,1.5C124.7,43.5,122.1,45,119.1,45z M116.6,35.6h4.9c-0.1-1.7-1-2.7-2.3-2.7
	C117.9,32.9,116.9,33.9,116.6,35.6z"/>
<path class="st0" d="M145.7,44.6v-8.9c0-1.3-0.7-2.2-1.8-2.2c-0.8,0-1.6,0.4-2.1,1c0,0.2,0,0.5,0,0.8v9.4h-4.8v-8.9
	c0-1.3-0.7-2.2-1.7-2.2c-0.8,0-1.6,0.5-2.1,1.1v10.1h-4.8V30h4.6v2.2c1-1.6,2.5-2.6,4.2-2.6c1.7,0,3.2,1,4,2.6
	c1.1-1.7,2.7-2.6,4.5-2.6c2.7,0,4.9,2.3,4.9,5.7v9.4H145.7z"/>
<path class="st0" d="M160.2,45c-4.4,0-7.4-3.1-7.4-7.5c0-4.6,3.1-8,7.5-8c4,0,6.8,2.7,6.8,6.7c0,0.8-0.1,1.7-0.2,2.1h-9.3
	c0.3,2,1.4,3.2,3,3.2c1.1,0,2.1-0.7,2.8-1.8l3.4,1.5C165.8,43.5,163.3,45,160.2,45z M157.7,35.6h4.9c-0.1-1.7-1-2.7-2.3-2.7
	C159,32.9,158.1,33.9,157.7,35.6z"/>
<path class="st0" d="M178.6,44.6v-9c0-1.3-0.8-2.2-1.9-2.2c-0.9,0-1.8,0.4-2.3,1v10.2h-4.8V30h4.6v2.1c1-1.6,2.6-2.5,4.4-2.5
	c2.8,0,4.9,2.4,4.9,5.7v9.4H178.6z"/>
<path class="st0" d="M193.3,45c-3.9,0-5.8-1.8-5.8-4.6v-6.7h-2.3V30h2.3v-3.6h4.8V30h4v3.7h-4v5.5c0,1.3,0.7,1.9,2.1,1.9
	c0.9,0,1.6-0.2,2-0.3v3.7C195.7,44.8,194.5,45,193.3,45z"/>
<path class="st1" d="M26.3,16.7h-11v6.1h7.6h1.6h1.5c2.4,0,4.2,1.6,4.2,4c0,2.4-1.8,4-4.2,4h-1.5h-5.8l7.6,5.4c0,0,11.8,1,11.8-9.4
	C38,20.9,33.1,16.7,26.3,16.7z"/>
<path class="st1" d="M17.2,26.7c0,1.4,0.5,9.4,8.9,9.4l-0.2-5.4C16.6,30.8,17.2,26.7,17.2,26.7z"/>
<g>
	<path class="st0" d="M15.3,30.8v13.9h7.2v-7.4C17.7,36.7,15.9,33.4,15.3,30.8z"/>
</g>
<path class="st0" d="M26.3,16.7h-11v6.1h7.6h1.6h1.5c2.4,0,4.2,1.6,4.2,4c0,3.7-3.6,3.8-5.7,4c-0.2,0,8.1,0.9,11-1.7
	c1.8-1.6,2.9-4.6,0.5-8.2c-0.6-0.9-1.1-1.5-3.2-2.7C31.3,17.4,29.2,16.7,26.3,16.7z"/>
<g>
	<path class="st1" d="M197.2,60.5c-0.3,2.6-1.8,2.9-4.1,3c-0.9,0-2.3,0-2.8-0.8c-0.4-0.5-0.4-1.6-0.4-2.2v-3.6
		c2.1,0,3.3,0.1,3.6,2.4h0.5c0-0.9,0-1.8-0.1-2.7c0-1,0.1-2,0.1-3h-0.5c-0.1,1.6-0.6,2.9-3.6,2.7V51c0-1-0.1-0.9,0.6-0.9h1.6
		c2.3,0,3.5,0.2,3.9,2.7h0.5v-3.3h-11v0.6c0.7,0,1.6,0,1.9,0.8c0.2,0.6,0.2,2.2,0.2,2.9v6.1c0,0.7,0,2.3-0.2,2.9
		c-0.3,0.7-1.2,0.8-1.9,0.8c-1-0.2-1.3-0.5-2-1.3l-4.7-5.4c2.2-0.2,4-1.4,4-3.8c0-3.1-2.5-3.7-5.1-3.7c-0.9,0-1.9,0.1-2.8,0.1
		c-1.3,0-2.5-0.1-3.8-0.1V50c0.7,0,1.6,0,1.9,0.7c0.2,0.6,0.2,2.2,0.2,2.9v6.2c0,0.7,0,2.3-0.2,2.9c-0.2,0.8-1.2,0.8-1.9,0.8v0.5
		c1.1,0,2.2-0.1,3.3-0.1c1.1,0,2.1,0.1,3.1,0.1v-0.5c-0.7,0-1.6,0-1.9-0.8c-0.2-0.6-0.2-2.2-0.2-2.9v-2.6c1.2,0,1.1,0.1,1.8,1
		l3.7,4.6l1,1.3c0.6,0,1.1-0.1,1.7-0.1c0.7,0,1.3,0.1,2,0.1v0h11.8l0.2-3.6H197.2z M175.5,56.7v-5.8c0-0.2,0-0.7,0.2-0.8
		c0.2-0.1,1.2,0,1.4,0c2,0,3.1,1.4,3.1,3.3C180.3,56.6,178.2,56.7,175.5,56.7z"/>
	<path class="st1" d="M131,61.9c3.4-3.1,7.4-3.1,7.4-6.5c0-2.4-2.6-3.5-5.4-3.5c-1.9,0-4.7,1-4.7,3.4c0,1.2,0.8,2.2,2.1,2.2
		c0.9,0,1.8-0.6,1.9-1.1c-0.2,0-0.5,0.1-0.7,0.1c-0.8,0-1.5-0.7-1.5-1.6c0-1.3,1.3-2.1,2.8-2.1c1.9,0,2.8,0.9,2.8,2.3
		c0,3.9-6.2,5.1-7.7,9.1c1.1-0.1,2.4-0.1,4-0.1h2.7c0.7,0,1.4,0,1.4,0.2c0,0.5-0.1,0.9-0.2,1.3h1.2l0.9-3.9
		c-0.8,0.1-1.7,0.1-2.7,0.1H131z M153.2,64.4v-1.2h-3.6V51.8H149l-9.5,11.9v0.8h7.7V69c0,1-0.9,1.3-2.6,1.3v0.9
		c1.6,0,2.7-0.1,3.9-0.1c1.1,0,2.2,0,3.9,0.1v-0.9c-1.7,0-2.6-0.3-2.6-1.3v-4.6H153.2z M147.3,63.2h-5.8l5.8-7.2h0V63.2z"/>
	<path class="st1" d="M154.6,56.9c0-1.2,0.3-2.3,0.8-3.3c0.5-1,1.3-1.9,2.2-2.7c0.7-0.6,1.5-1,2.4-1.3c0.8-0.3,1.7-0.5,2.6-0.5
		c1.1,0,2.2,0.2,3.2,0.7c1,0.5,1.9,1.2,2.7,2c1.3,1.4,1.9,3,1.9,4.8c0,0.9-0.2,1.8-0.5,2.6c-0.3,0.8-0.8,1.6-1.4,2.3
		c-0.8,0.9-1.7,1.5-2.7,2c-1,0.5-2.1,0.7-3.3,0.7c-1.1,0-2.2-0.2-3.2-0.7c-1-0.5-1.9-1.1-2.7-2c-0.6-0.7-1-1.4-1.4-2.3
		C154.7,58.7,154.6,57.8,154.6,56.9z M157.2,57.1c0,2.1,0.6,3.8,1.7,5.2c0.5,0.6,1,1.1,1.6,1.4c0.6,0.3,1.2,0.4,2,0.4
		c0.7,0,1.4-0.1,2-0.4c0.6-0.3,1.1-0.7,1.6-1.4c1.1-1.4,1.7-3.2,1.7-5.3c0-1.1-0.2-2.2-0.5-3.2c-0.3-1-0.7-1.9-1.3-2.6
		c-0.5-0.6-1-1-1.5-1.3c-0.6-0.3-1.2-0.4-2-0.4c-0.8,0-1.4,0.1-2,0.4c-0.5,0.3-1.1,0.7-1.5,1.3c-0.6,0.7-1,1.6-1.3,2.6
		C157.3,54.8,157.2,55.9,157.2,57.1z"/>
</g>
<g>
	<g>
		<path class="st0" d="M13.6,66.9l0.1-0.4l0.4-0.1c0.1-0.2,0.3-0.5,0.4-1.1l0.5-2.7c0.2-1.2,0.3-1.9,0.3-2l-0.9,0.3l0.1-0.4
			c0.4-0.3,0.8-0.5,1.1-0.6c0.5-0.8,0.9-1.3,1.1-1.5l0.4,0c-0.2,0.6-0.3,1-0.3,1.2l0,0c0.4-0.3,0.9-0.5,1.4-0.5
			c0.5,0,0.9,0.2,1.2,0.5c0.3,0.4,0.4,0.8,0.4,1.4c0,1-0.3,1.9-0.8,2.7c-0.6,0.8-1.2,1.2-2,1.2c-0.4,0-0.7-0.1-1-0.2l-0.1,0.5
			c0,0.3-0.1,0.5-0.1,0.6c0,0,0,0.1,0,0.1c0,0.2,0.1,0.3,0.2,0.3l1,0.1c0,0.1,0,0.3,0,0.4H13.6z M16,64.1c0.2,0.3,0.4,0.4,0.7,0.4
			c0.2,0,0.5-0.2,0.7-0.5s0.4-0.8,0.6-1.3c0.1-0.5,0.2-1,0.2-1.5c0-0.4-0.1-0.6-0.2-0.9c-0.1-0.2-0.3-0.3-0.6-0.3
			c-0.3,0-0.6,0.1-0.8,0.2l-0.4,2.2C16.1,63.1,16,63.7,16,64.1z"/>
		<path class="st0" d="M20.2,62.7c0-1,0.3-1.8,0.9-2.5c0.6-0.7,1.3-1.1,2-1.1c0.6,0,1.1,0.2,1.5,0.6c0.4,0.4,0.6,1,0.6,1.7
			c0,1-0.3,1.8-0.9,2.5c-0.6,0.7-1.2,1.1-2,1.1c-0.6,0-1.2-0.2-1.6-0.6S20.2,63.3,20.2,62.7z M21.7,63c0,1,0.3,1.5,0.8,1.5
			c0.2,0,0.4-0.1,0.6-0.4c0.2-0.3,0.3-0.6,0.4-1c0.1-0.4,0.2-0.8,0.3-1.2c0.1-0.4,0.1-0.7,0.1-1c0-1-0.2-1.5-0.7-1.5
			c-0.3,0-0.5,0.2-0.8,0.7c-0.2,0.4-0.4,0.9-0.5,1.4C21.8,62.1,21.7,62.6,21.7,63z"/>
		<path class="st0" d="M25.9,60.2c0.2-0.3,0.5-0.6,0.8-0.8c0.3-0.2,0.6-0.3,0.9-0.3c0.2,0,0.4,0.1,0.5,0.2c0.1,0.1,0.2,0.3,0.2,0.6
			c0,0.3-0.1,0.7-0.2,1.4c-0.2,1.3-0.4,2-0.4,2.2c0,0.4,0.1,0.6,0.4,0.6c0.3,0,0.7-0.3,1-1c0.4-0.6,0.6-1.3,0.6-1.9
			c0-0.3,0-0.6,0-0.9c0-0.3,0-0.6,0-0.6c0-0.2,0.2-0.3,0.3-0.4s0.3-0.1,0.5-0.1c0.2,0,0.4,0.1,0.5,0.2c0.1,0.1,0.2,0.3,0.2,0.6
			c0,0.3-0.1,0.8-0.2,1.4c-0.2,1-0.3,1.7-0.3,2.1c0,0.2,0,0.3,0.1,0.4c0.1,0.1,0.2,0.2,0.4,0.2c0.3,0,0.6-0.3,1-0.8
			c0.3-0.5,0.5-1.1,0.6-1.8c0-0.2-0.1-0.5-0.3-0.9c-0.2-0.4-0.3-0.7-0.3-0.9c0.1-0.1,0.1-0.3,0.3-0.4c0.1-0.1,0.3-0.1,0.4-0.1
			c0.2,0,0.4,0.1,0.6,0.4c0.1,0.2,0.2,0.5,0.2,0.8c0,0.6-0.1,1.2-0.4,1.9s-0.7,1.4-1.2,1.9c-0.5,0.6-1,0.8-1.5,0.8
			c-0.4,0-0.7-0.1-0.9-0.3c-0.2-0.2-0.3-0.4-0.3-0.8l0.1-0.7h0c0,0-0.1,0.1-0.1,0.2c0,0.1-0.1,0.2-0.2,0.4c-0.1,0.2-0.3,0.4-0.4,0.5
			c-0.1,0.1-0.3,0.3-0.5,0.4c-0.2,0.1-0.4,0.2-0.6,0.2c-0.4,0-0.7-0.1-0.9-0.3c-0.2-0.2-0.3-0.5-0.3-0.8c0-0.3,0.1-0.7,0.2-1.2
			l0.3-1.4c0.1-0.4,0.1-0.7,0.1-0.8c0-0.2,0-0.3-0.1-0.3c-0.2,0-0.4,0.2-0.7,0.5L25.9,60.2z"/>
		<path class="st0" d="M34.4,62.8c0-1,0.3-1.9,0.9-2.6c0.6-0.7,1.3-1.1,2-1.1c0.5,0,0.9,0.1,1.2,0.3c0.3,0.2,0.5,0.5,0.5,0.9
			c0,0.5-0.3,0.9-0.8,1.1c-0.6,0.3-1.3,0.4-2.3,0.5c0,0.2,0,0.4,0,0.6c0,0.4,0.1,0.8,0.3,1c0.2,0.3,0.4,0.4,0.8,0.4
			c0.5,0,1-0.2,1.5-0.7l0.2,0.3c-0.5,1-1.2,1.5-2.1,1.5c-0.6,0-1.1-0.2-1.5-0.6C34.5,64,34.4,63.4,34.4,62.8z M35.9,61.4
			c1.1-0.2,1.7-0.6,1.7-1.3c0-0.2,0-0.3-0.1-0.5c-0.1-0.1-0.2-0.2-0.4-0.2c-0.3,0-0.5,0.2-0.7,0.6C36.1,60.4,36,60.9,35.9,61.4z"/>
		<path class="st0" d="M39.4,60.2c0.2-0.3,0.5-0.6,0.8-0.8c0.3-0.2,0.6-0.3,0.9-0.3c0.2,0,0.4,0.1,0.5,0.2c0.1,0.1,0.2,0.3,0.2,0.6
			c0,0.3-0.1,0.8-0.3,1.6h0.1c0.5-1.6,1.2-2.4,2.1-2.4c0.1,0,0.3,0,0.4,0.1c0.1,0.1,0.1,0.2,0.1,0.3c0,0.2-0.1,0.5-0.2,0.7
			c-0.1,0.2-0.2,0.4-0.3,0.5c-0.2,0-0.5-0.1-1-0.3c-0.2,0-0.4,0.3-0.7,0.8c-0.3,0.5-0.5,1.1-0.7,1.9L41,64.9c-0.4,0-0.6,0-0.9,0
			c-0.2,0-0.4,0-0.4-0.1l-0.1,0l0.6-3.3c0.1-0.6,0.2-1,0.2-1.2c0-0.2-0.1-0.3-0.2-0.3c-0.2,0-0.4,0.2-0.7,0.5L39.4,60.2z"/>
		<path class="st0" d="M44.1,62.8c0-1,0.3-1.9,0.9-2.6c0.6-0.7,1.3-1.1,2-1.1c0.5,0,0.9,0.1,1.2,0.3c0.3,0.2,0.5,0.5,0.5,0.9
			c0,0.5-0.3,0.9-0.8,1.1c-0.6,0.3-1.3,0.4-2.3,0.5c0,0.2,0,0.4,0,0.6c0,0.4,0.1,0.8,0.3,1c0.2,0.3,0.4,0.4,0.8,0.4
			c0.5,0,1-0.2,1.5-0.7l0.2,0.3c-0.5,1-1.2,1.5-2.1,1.5c-0.6,0-1.1-0.2-1.5-0.6C44.3,64,44.1,63.4,44.1,62.8z M45.6,61.4
			c1.1-0.2,1.7-0.6,1.7-1.3c0-0.2,0-0.3-0.1-0.5c-0.1-0.1-0.2-0.2-0.4-0.2c-0.3,0-0.5,0.2-0.7,0.6C45.9,60.4,45.7,60.9,45.6,61.4z"
			/>
		<path class="st0" d="M49.1,63c0-1,0.3-1.9,0.9-2.7c0.6-0.8,1.3-1.2,2.1-1.2c0.4,0,0.7,0.1,1,0.3l0.2-1.1c0-0.3,0.1-0.5,0.1-0.6
			c0-0.1,0-0.2-0.1-0.2l-0.7,0l0.1-0.4c0.8-0.2,1.4-0.4,2.1-0.4l0.3,0c-0.2,0.8-0.4,1.6-0.5,2.4l-0.6,3.6c-0.1,0.5-0.2,0.8-0.2,1
			c0,0.2,0.1,0.3,0.2,0.3c0.2,0,0.4-0.2,0.7-0.6l0.2,0.4c-0.2,0.3-0.5,0.6-0.8,0.8c-0.3,0.2-0.6,0.3-0.9,0.3c-0.2,0-0.4-0.1-0.5-0.2
			c-0.1-0.1-0.2-0.3-0.2-0.6c0-0.3,0.1-0.7,0.2-1.3l-0.1,0c-0.2,0.6-0.5,1.1-0.8,1.5c-0.3,0.4-0.7,0.6-1,0.6c-0.4,0-0.8-0.2-1.1-0.5
			C49.2,64.1,49.1,63.6,49.1,63z M50.5,62.9c0,0.3,0,0.6,0.1,0.8c0.1,0.2,0.2,0.3,0.4,0.3c0.3,0,0.5-0.2,0.8-0.7
			c0.3-0.5,0.5-1.1,0.8-2l0-0.2c0-0.3,0.1-0.7,0.1-0.9c-0.1-0.2-0.2-0.3-0.3-0.5c-0.1-0.1-0.3-0.2-0.5-0.2c-0.4,0-0.7,0.4-1,1.1
			C50.7,61.4,50.5,62.2,50.5,62.9z"/>
		<path class="st0" d="M57.7,64.8c0.2-0.6,0.3-1.3,0.4-2.1l0.7-3.7c0.1-0.6,0.2-1,0.2-1.2c0-0.1,0-0.1,0-0.2h-0.7c0-0.1,0-0.1,0-0.2
			c0-0.1,0-0.1,0.1-0.2l0,0c0.7-0.3,1.3-0.4,1.9-0.5l0.3,0.1c0,0,0,0.1-0.1,0.3c0,0.2-0.1,0.5-0.2,0.8c-0.1,0.3-0.1,0.6-0.2,0.9
			l-0.4,2.3l0.1-0.1c0.2-0.6,0.5-1.1,0.8-1.4c0.3-0.4,0.7-0.6,1.1-0.6c0.4,0,0.8,0.2,1,0.5c0.2,0.4,0.4,0.8,0.4,1.3
			c0,0.7-0.1,1.3-0.4,1.9c-0.2,0.6-0.6,1.1-1,1.5S60.8,65,60.2,65c-0.3,0-0.6-0.1-0.9-0.2c-0.3-0.1-0.6-0.2-0.8-0.4L58,64.9
			L57.7,64.8z M59.3,63.9c0.1,0.2,0.2,0.3,0.3,0.4c0.1,0.1,0.3,0.2,0.5,0.2c0.3,0,0.5-0.2,0.8-0.6s0.4-0.8,0.5-1.4
			c0.1-0.5,0.2-1,0.2-1.5c0-0.3,0-0.6-0.1-0.8C61.4,60.1,61.2,60,61,60c-0.2,0-0.5,0.2-0.8,0.7c-0.3,0.5-0.5,1.1-0.8,1.9L59.4,63
			C59.3,63.5,59.3,63.8,59.3,63.9z"/>
		<path class="st0" d="M62.7,66.5c0-0.2,0-0.4,0.1-0.5c0.1-0.2,0.2-0.3,0.3-0.3c0.3,0,0.6,0.1,1.2,0.4c0.1-0.1,0.3-0.3,0.5-0.5
			c0.2-0.2,0.4-0.5,0.6-0.8L64.7,61c-0.1-0.4-0.1-0.7-0.2-0.8c-0.1-0.1-0.1-0.2-0.2-0.2c-0.1,0-0.3,0.2-0.6,0.5l-0.2-0.3
			c0.6-0.7,1.1-1.1,1.6-1.1c0.2,0,0.4,0.1,0.6,0.3c0.1,0.2,0.3,0.5,0.3,0.9l0.5,3.2c0.7-1,1.1-1.8,1.2-2.4c0-0.1-0.1-0.4-0.3-0.7
			c-0.2-0.4-0.3-0.6-0.3-0.8c0.1-0.1,0.2-0.3,0.3-0.4c0.1-0.1,0.3-0.1,0.4-0.1c0.2,0,0.4,0.1,0.6,0.3c0.1,0.2,0.2,0.5,0.2,0.8
			c0,0.4-0.3,1.1-0.8,2.1c-0.5,1-1.3,2-2.1,3.1c-0.5,0.6-0.9,1-1.2,1.3c-0.4,0.3-0.7,0.4-1.1,0.4C62.9,67,62.7,66.9,62.7,66.5z"/>
	</g>
	<g>
		<path class="st2" d="M78.1,65.8c-0.1-0.1-0.1-0.1-0.2,0c-0.1,0.1-0.2,0.1-0.3,0.1c-0.5,0.2-1,0.4-1.6,0.4c-0.4,0-0.9,0-1.3,0
			c-0.3,0-0.7-0.1-1-0.2c-0.5-0.1-0.9-0.3-1.4-0.5c-0.5-0.2-1-0.5-1.3-1c-0.2-0.2-0.4-0.5-0.4-0.9c0-0.5,0.2-0.9,0.6-1.2
			c0.5-0.4,1.1-0.5,1.7-0.6c0.3,0,0.7,0,1,0c0.3,0,0.7,0.1,1,0.1c0.3,0.1,0.7,0.1,1,0.2c0.2,0.1,0.3,0.1,0.5,0.2v-4.2h2.7l0,0.1
			c0.2-0.1,0.5-0.2,0.8-0.2c0.4,0,0.7,0.1,1,0.3c0.3,0.2,0.5,0.5,0.5,0.8c0,0.1,0,0.2,0,0.2v-2.4c-0.5-0.7-1-1.4-1.5-2
			c-0.4-0.5-0.8-1-1.3-1.4c-0.4-0.4-0.8-0.8-1.3-1.1c-0.4-0.3-0.9-0.4-1.4-0.3c-0.4,0.1-0.8,0.2-1.1,0.4c-0.5,0.3-0.9,0.6-1.4,0.9
			c-0.5,0.4-1.1,0.7-1.6,1.1c-0.4,0.3-0.9,0.6-1.3,0.9c-0.1,0.1-0.1,0.1,0,0.2c0.1,0.1,0.2,0.2,0.3,0.4c0.1,0.1,0.1,0.1,0.2,0
			c0.3-0.2,0.6-0.3,0.9-0.3c0.6,0,1.1,0.1,1.7,0.3c0.6,0.3,1.1,0.7,1.4,1.3c0.3,0.5,0.7,1,1,1.5c0.1,0.1,0.1,0.3,0.2,0.4
			c-0.5,0.1-0.9,0.2-1.3,0.3c-0.4,0.1-0.9,0.2-1.3,0.4c-0.6,0.2-1.1,0.4-1.6,0.6c-1,0.4-1.9,0.8-2.8,1.4c-0.7,0.4-1.3,0.9-1.8,1.5
			c-0.3,0.3-0.5,0.6-0.6,1c-0.2,0.5-0.4,1.1-0.4,1.7c0,0.6,0.2,1.1,0.5,1.5c0.5,0.7,1.1,1.2,1.9,1.6c0.5,0.3,1.1,0.5,1.7,0.5
			c0.6,0.1,1.2,0,1.8-0.1c0.4-0.1,0.8-0.2,1.2-0.4c0.9-0.3,1.7-0.8,2.5-1.3c0.6-0.4,1.3-0.9,1.8-1.4c0.2-0.2,0.4-0.3,0.5-0.5
			c0,0,0.1-0.1,0-0.2C78.4,66.1,78.3,65.9,78.1,65.8z"/>
		<path class="st2" d="M86.3,65.5c-0.1,0-0.2,0-0.3,0c-0.3,0-0.6-0.1-0.9-0.2c-0.3-0.1-0.4-0.3-0.6-0.5c-0.1-0.2-0.2-0.4-0.2-0.5
			v1.2h-2.6h-0.1h-1.5c0.4,0.5,0.9,1.1,1.2,1.6c0.3,0.5,0.7,1,1,1.5c0.3,0.4,0.5,0.8,0.7,1.2c0.1,0.1,0.1,0.1,0.2,0.1
			c0.5-0.3,0.9-0.6,1.4-0.9c0.8-0.5,1.6-1,2.5-1.5c0.1-0.1,0.1-0.1,0.1-0.2C86.9,66.6,86.6,66.1,86.3,65.5z"/>
	</g>
	<g>
		<path class="st0" d="M78.8,58.7l0,0.6c0.1-0.2,0.3-0.4,0.5-0.5c0.2-0.1,0.4-0.2,0.7-0.2c0.3,0,0.6,0.1,0.8,0.2s0.3,0.4,0.4,0.6
			c0.1,0.2,0.1,0.6,0.1,1.2V65h-1.9v-4.4c0-0.4,0-0.7,0-0.8c0-0.1-0.1-0.1-0.2-0.1c-0.1,0-0.2,0.1-0.3,0.2c0,0.1-0.1,0.4-0.1,0.9V65
			h-1.9v-6.3H78.8z"/>
		<path class="st0" d="M83.9,57.3v1h-2v-1H83.9z M83.9,58.7V65h-2v-6.3H83.9z"/>
		<path class="st0" d="M89,58.7V65h-2l0-0.5c-0.1,0.2-0.3,0.4-0.5,0.5c-0.2,0.1-0.4,0.2-0.7,0.2c-0.3,0-0.5-0.1-0.7-0.2
			c-0.2-0.1-0.3-0.2-0.4-0.4s-0.1-0.3-0.2-0.5c0-0.2,0-0.5,0-1.1v-4.3h1.9V63c0,0.5,0,0.8,0,0.9c0,0.1,0.1,0.1,0.2,0.1
			c0.1,0,0.2,0,0.3-0.1c0-0.1,0-0.4,0-0.9v-4.2H89z"/>
		<path class="st0" d="M91.6,58.7l0,0.6c0.1-0.2,0.3-0.4,0.5-0.5c0.2-0.1,0.4-0.2,0.7-0.2c0.5,0,0.9,0.2,1.2,0.7
			c0.2-0.2,0.3-0.4,0.5-0.5c0.2-0.1,0.4-0.2,0.7-0.2c0.3,0,0.6,0.1,0.8,0.2c0.2,0.2,0.4,0.4,0.4,0.6c0.1,0.2,0.1,0.6,0.1,1.1V65
			h-1.9v-4.1c0-0.5,0-0.9-0.1-1c0-0.1-0.1-0.2-0.3-0.2c-0.1,0-0.2,0.1-0.3,0.2c0,0.1-0.1,0.5-0.1,1V65h-1.9v-4c0-0.6,0-1,0-1.1
			c0-0.1-0.1-0.2-0.2-0.2c-0.1,0-0.2,0-0.2,0.1c-0.1,0.1-0.1,0.1-0.1,0.2c0,0.1,0,0.3,0,0.6V65h-1.9v-6.3H91.6z"/>
		<path class="st0" d="M98.9,61.2h-1.8v-0.4c0-0.5,0.1-0.9,0.2-1.1c0.1-0.3,0.3-0.5,0.7-0.7c0.3-0.2,0.8-0.3,1.3-0.3
			c0.6,0,1.1,0.1,1.5,0.3s0.5,0.5,0.6,0.8c0.1,0.3,0.1,1,0.1,2.1V65h-1.9v-0.6c-0.1,0.2-0.3,0.4-0.5,0.5c-0.2,0.1-0.4,0.2-0.7,0.2
			c-0.3,0-0.6-0.1-0.9-0.3s-0.4-0.6-0.4-1.2v-0.5c0-0.5,0.1-0.8,0.2-1c0.1-0.2,0.5-0.4,1.1-0.6c0.6-0.2,1-0.4,1-0.5
			c0-0.1,0.1-0.3,0.1-0.5c0-0.3,0-0.5-0.1-0.6c0-0.1-0.1-0.1-0.2-0.1c-0.1,0-0.2,0-0.2,0.1c0,0.1,0,0.3,0,0.7V61.2z M99.5,62
			c-0.3,0.2-0.5,0.4-0.5,0.6c0,0.2-0.1,0.4-0.1,0.7c0,0.3,0,0.5,0.1,0.6c0,0.1,0.1,0.1,0.3,0.1c0.1,0,0.2,0,0.2-0.1
			c0-0.1,0.1-0.3,0.1-0.6V62z"/>
	</g>
</g>
</svg>
