<svg xmlns="http://www.w3.org/2000/svg" viewBox="0 0 320.06 62.85"><defs><style>.cls-1{fill:#0a6480;}.cls-2{fill:#1889aa;}.cls-3{fill:#c6dbe6;}</style></defs><g id="Livello_2" data-name="Livello 2"><g id="Livello_1-2" data-name="Livello 1"><path class="cls-1" d="M1.26,56.83a1,1,0,0,1-.46-.11.34.34,0,0,1-.2-.31V49.93a.37.37,0,0,1,.14-.29.52.52,0,0,1,.36-.12h2a2.81,2.81,0,0,1,1.15.22,1.67,1.67,0,0,1,.82.71,2.53,2.53,0,0,1,.3,1.32v.06a2.48,2.48,0,0,1-.31,1.32,1.81,1.81,0,0,1-.85.72A3,3,0,0,1,3,54.1H1.9v2.31a.34.34,0,0,1-.2.31A.93.93,0,0,1,1.26,56.83Zm.64-3.75H3a1.07,1.07,0,0,0,.77-.28,1.18,1.18,0,0,0,.28-.87v-.11a1.19,1.19,0,0,0-.28-.88A1,1,0,0,0,3,50.66H1.9Z" transform="translate(-0.01)"/><path class="cls-1" d="M8.74,56.89a3,3,0,0,1-1.19-.23,1.8,1.8,0,0,1-.84-.73,2.51,2.51,0,0,1-.32-1.34V51.82a2.54,2.54,0,0,1,.32-1.35,1.8,1.8,0,0,1,.84-.73,3,3,0,0,1,1.19-.22,3.09,3.09,0,0,1,1.2.22,1.8,1.8,0,0,1,.84.73,2.55,2.55,0,0,1,.31,1.35v2.77a2.51,2.51,0,0,1-.31,1.34,1.8,1.8,0,0,1-.84.73A3.09,3.09,0,0,1,8.74,56.89Zm0-1.14a1.07,1.07,0,0,0,.77-.28,1.19,1.19,0,0,0,.28-.88V51.82a1.18,1.18,0,0,0-.28-.88,1,1,0,0,0-.77-.28,1,1,0,0,0-.76.28,1.18,1.18,0,0,0-.28.88v2.77a1.19,1.19,0,0,0,.28.88A1,1,0,0,0,8.74,55.75Z" transform="translate(-0.01)"/><path class="cls-1" d="M14.84,56.89a1.36,1.36,0,0,1-.53-.11.57.57,0,0,1-.32-.33l-2-6.29A.5.5,0,0,1,12,50a.35.35,0,0,1,.13-.27.88.88,0,0,1,.33-.18,1,1,0,0,1,.37-.07.6.6,0,0,1,.27.06.25.25,0,0,1,.16.2l1.58,5.42.85-3.48a.4.4,0,0,1,.24-.27.87.87,0,0,1,.4-.09,1,1,0,0,1,.41.09.4.4,0,0,1,.22.27l.85,3.48,1.58-5.42a.3.3,0,0,1,.16-.2.6.6,0,0,1,.27-.06,1,1,0,0,1,.38.07.83.83,0,0,1,.32.18.35.35,0,0,1,.13.27.5.5,0,0,1,0,.12l-2,6.29a.6.6,0,0,1-.32.33,1.32,1.32,0,0,1-.53.11,1.36,1.36,0,0,1-.53-.11.48.48,0,0,1-.3-.33l-.64-2.7-.65,2.7a.48.48,0,0,1-.3.33A1.36,1.36,0,0,1,14.84,56.89Z" transform="translate(-0.01)"/><path class="cls-1" d="M22.19,56.83a.77.77,0,0,1-.39-.11.33.33,0,0,1-.18-.31V49.94a.35.35,0,0,1,.18-.32.76.76,0,0,1,.39-.1h3.56a.34.34,0,0,1,.32.18.82.82,0,0,1,.09.38.78.78,0,0,1-.1.41.36.36,0,0,1-.31.17H22.92v2h1.52a.36.36,0,0,1,.31.15.64.64,0,0,1,.1.37.68.68,0,0,1-.09.33.35.35,0,0,1-.32.17H22.92v2h2.83a.34.34,0,0,1,.31.17.76.76,0,0,1,.1.41.85.85,0,0,1-.09.38.34.34,0,0,1-.32.18Z" transform="translate(-0.01)"/><path class="cls-1" d="M31.23,56.88A.46.46,0,0,1,31,56.8a.56.56,0,0,1-.2-.23l-1.42-2.76h-.84v2.6a.34.34,0,0,1-.2.31.94.94,0,0,1-.45.11,1,1,0,0,1-.45-.11.34.34,0,0,1-.2-.31V49.93a.39.39,0,0,1,.42-.41h2a3.51,3.51,0,0,1,1.2.19,1.7,1.7,0,0,1,.85.64A2.17,2.17,0,0,1,32,51.61a2.61,2.61,0,0,1-.17,1,1.66,1.66,0,0,1-.46.65,2.14,2.14,0,0,1-.68.37L32,56l0,.08a.25.25,0,0,1,0,.08.56.56,0,0,1-.12.32,1.08,1.08,0,0,1-.3.26A.94.94,0,0,1,31.23,56.88Zm-2.71-4.09h1.1a1.17,1.17,0,0,0,.78-.24,1,1,0,0,0,.29-.82,1.05,1.05,0,0,0-.29-.84,1.17,1.17,0,0,0-.78-.23h-1.1Z" transform="translate(-0.01)"/><path class="cls-1" d="M33.77,56.83a.77.77,0,0,1-.39-.11.33.33,0,0,1-.18-.31V49.94a.35.35,0,0,1,.18-.32.76.76,0,0,1,.39-.1h3.56a.32.32,0,0,1,.31.18.72.72,0,0,1,.1.38.7.7,0,0,1-.11.41.34.34,0,0,1-.3.17H34.5v2H36a.34.34,0,0,1,.3.15.65.65,0,0,1,.11.37.6.6,0,0,1-.1.33.32.32,0,0,1-.31.17H34.5v2h2.83a.32.32,0,0,1,.3.17.68.68,0,0,1,.11.41.75.75,0,0,1-.1.38.32.32,0,0,1-.31.18Z" transform="translate(-0.01)"/><path class="cls-1" d="M39.37,56.83a.7.7,0,0,1-.42-.12.36.36,0,0,1-.15-.29V49.93a.35.35,0,0,1,.15-.29.7.7,0,0,1,.42-.12h1.77a3,3,0,0,1,1.19.22,1.78,1.78,0,0,1,.85.73,2.54,2.54,0,0,1,.32,1.35v2.71a2.51,2.51,0,0,1-.32,1.34,1.78,1.78,0,0,1-.85.73,3,3,0,0,1-1.19.23Zm.73-1.14h1a1,1,0,0,0,.77-.29,1.18,1.18,0,0,0,.28-.87V51.82a1.19,1.19,0,0,0-.28-.88,1,1,0,0,0-.77-.28h-1Z" transform="translate(-0.01)"/><path class="cls-1" d="M47.78,56.83a.7.7,0,0,1-.42-.12.36.36,0,0,1-.15-.29V49.94a.35.35,0,0,1,.18-.32.76.76,0,0,1,.39-.1h1.94a3.12,3.12,0,0,1,1,.14,1.44,1.44,0,0,1,.75.53,1.77,1.77,0,0,1,.29,1.09,2.07,2.07,0,0,1-.23,1,1.34,1.34,0,0,1-.62.58,1.57,1.57,0,0,1,.54.3,1.38,1.38,0,0,1,.36.51,2.1,2.1,0,0,1,.13.82v.21A2.45,2.45,0,0,1,51.64,56a1.51,1.51,0,0,1-.72.67,2.37,2.37,0,0,1-1,.21Zm.73-4.47h1.12a.73.73,0,0,0,.6-.24,1,1,0,0,0,.2-.62.92.92,0,0,0-.1-.46.69.69,0,0,0-.28-.28.83.83,0,0,0-.43-.1H48.51Zm0,3.33h1.12a1,1,0,0,0,.72-.26,1.16,1.16,0,0,0,.26-.83v-.16a1.1,1.1,0,0,0-.26-.83,1,1,0,0,0-.72-.23H48.51Z" transform="translate(-0.01)"/><path class="cls-1" d="M55.3,56.83a1,1,0,0,1-.45-.11.34.34,0,0,1-.2-.31V53.9a.23.23,0,0,0,0-.13l-2.07-3.58,0-.08v0a.37.37,0,0,1,.14-.28.94.94,0,0,1,.34-.19,1.06,1.06,0,0,1,.38-.07.38.38,0,0,1,.24.06.69.69,0,0,1,.15.2l1.53,2.89,1.52-2.89a.7.7,0,0,1,.16-.2.38.38,0,0,1,.24-.06,1,1,0,0,1,.37.07.94.94,0,0,1,.34.19.35.35,0,0,1,.15.28.11.11,0,0,1,0,0,.31.31,0,0,1,0,.08L56,53.77a.23.23,0,0,0,0,.13v2.51a.33.33,0,0,1-.21.31A.93.93,0,0,1,55.3,56.83Z" transform="translate(-0.01)"/><path class="cls-2" d="M80.8,48.58l0,.73a1.65,1.65,0,0,1,1.5-.87,1.66,1.66,0,0,1,1,.29,1.31,1.31,0,0,1,.51.73,7.18,7.18,0,0,1,.11,1.48v5.52h-2.4V51a5.84,5.84,0,0,0,0-1c0-.12-.14-.17-.3-.17a.29.29,0,0,0-.32.2,5.64,5.64,0,0,0-.06,1.1v5.32h-2.4V48.58Z" transform="translate(-0.01)"/><path class="cls-2" d="M87.19,46.85V48.1H84.72V46.85Zm0,1.73v7.88H84.72V48.58Z" transform="translate(-0.01)"/><path class="cls-2" d="M93.54,48.58v7.88H91.1l0-.65a1.75,1.75,0,0,1-.61.6,1.8,1.8,0,0,1-.84.2,2,2,0,0,1-.9-.19,1.22,1.22,0,0,1-.52-.51,1.78,1.78,0,0,1-.22-.66c0-.22,0-.68,0-1.35V48.58h2.4v5.36a5.35,5.35,0,0,0,.06,1.1.28.28,0,0,0,.3.17c.18,0,.29-.06.32-.18a6.13,6.13,0,0,0,0-1.14V48.58Z" transform="translate(-0.01)"/><path class="cls-2" d="M96.77,48.58l0,.75a2,2,0,0,1,.67-.67,1.68,1.68,0,0,1,.87-.22,1.71,1.71,0,0,1,1.52.89,2.16,2.16,0,0,1,.68-.67,1.8,1.8,0,0,1,1.86.08,1.33,1.33,0,0,1,.51.72,6,6,0,0,1,.11,1.4v5.6h-2.32V51.33a6.86,6.86,0,0,0-.07-1.25.3.3,0,0,0-.32-.24.31.31,0,0,0-.33.23,6.12,6.12,0,0,0-.07,1.26v5.13H97.51v-5a8.62,8.62,0,0,0-.06-1.39.28.28,0,0,0-.31-.23.34.34,0,0,0-.27.12.46.46,0,0,0-.13.29c0,.12,0,.37,0,.75v5.46H94.4V48.58Z" transform="translate(-0.01)"/><path class="cls-2" d="M105.92,51.64h-2.25v-.53a3.74,3.74,0,0,1,.21-1.41,2,2,0,0,1,.85-.88,3.94,3.94,0,0,1,3.48,0,1.69,1.69,0,0,1,.75,1.06,17.24,17.24,0,0,1,.12,2.58v4h-2.33v-.7a1.6,1.6,0,0,1-.57.63,1.57,1.57,0,0,1-.83.21,2,2,0,0,1-1.15-.35c-.35-.23-.53-.75-.53-1.54v-.65a2,2,0,0,1,.28-1.21,4.13,4.13,0,0,1,1.39-.75,3.82,3.82,0,0,0,1.26-.62,1.58,1.58,0,0,0,.08-.65,2.31,2.31,0,0,0-.09-.81.31.31,0,0,0-.3-.18c-.17,0-.27,0-.31.15a3.22,3.22,0,0,0-.06.82Zm.76,1.08a1.88,1.88,0,0,0-.67.7,2.9,2.9,0,0,0-.09.82A2.49,2.49,0,0,0,106,55a.32.32,0,0,0,.32.18.29.29,0,0,0,.29-.14,2.1,2.1,0,0,0,.07-.73Z" transform="translate(-0.01)"/><path class="cls-3" d="M70.42,44.76l4.45-3.1a6.16,6.16,0,0,1,3.06-1.34,3.79,3.79,0,0,1,2.37,1.22,25.25,25.25,0,0,1,3.88,4.81c0,.28,0,2.68,0,2.68s-.6-1.65-2.78-.94H77.84v1.22S76.52,47.16,76,46.59a5.09,5.09,0,0,0-2.4-1.5,5.64,5.64,0,0,0-1-.1,3.36,3.36,0,0,0-1.58.45Z" transform="translate(-0.01)"/><path class="cls-3" d="M77.84,49.59v3.65a12.31,12.31,0,0,0-4.42-.64c-.56,0-2.48.28-2.9,1.85-.09.46-.13,1.24,1.23,2.25a9.11,9.11,0,0,0,4.15,1.38,7,7,0,0,0,4-.73l.65.68s-4.39,4.69-9.26,4.82A6.12,6.12,0,0,1,68,62a5.87,5.87,0,0,1-2.55-2.71,2.88,2.88,0,0,1-.17-1.15,4.55,4.55,0,0,1,.31-1.66s.47-1.78,3.22-3.45A28.91,28.91,0,0,1,77.84,49.59Z" transform="translate(-0.01)"/><path class="cls-3" d="M82.83,57.09s2.72,4.45,3,5.76c1.16-.67,5.67-3.57,5.67-3.57l-1.21-2.19s-2.13.3-2.66-1.09v1H82.76Z" transform="translate(-0.01)"/><path class="cls-1" d="M33.83,26.41a.9.9,0,0,1-.72-.42,4.33,4.33,0,0,1-.54-.85L27,14.34H22.44V25.4a.76.76,0,0,1-.38.7,1.46,1.46,0,0,1-.81.23,1.41,1.41,0,0,1-.82-.23.78.78,0,0,1-.36-.7V.9a.82.82,0,0,1,.25-.61A1,1,0,0,1,21,0h6.37a11.22,11.22,0,0,1,3.89.65,5.71,5.71,0,0,1,2.83,2.2A7.4,7.4,0,0,1,35.12,7.1a7.91,7.91,0,0,1-.74,3.67,5.42,5.42,0,0,1-2,2.22,8.51,8.51,0,0,1-2.87,1.06l5.55,10.66a.47.47,0,0,1,.13.24,2,2,0,0,1,0,.23,1,1,0,0,1-.2.58,1.67,1.67,0,0,1-.52.47A1.36,1.36,0,0,1,33.83,26.41ZM22.44,12.28h4.9a6.17,6.17,0,0,0,3.91-1.17,4.61,4.61,0,0,0,1.5-3.87,4.62,4.62,0,0,0-1.5-3.89A6.22,6.22,0,0,0,27.34,2.2h-4.9Z" transform="translate(-0.01)"/><path class="cls-1" d="M47.37,26.55a9.08,9.08,0,0,1-3.78-.76,5.86,5.86,0,0,1-2.7-2.45,8.65,8.65,0,0,1-1-4.5V7.71a8.67,8.67,0,0,1,1-4.5A5.86,5.86,0,0,1,43.59.76a9.88,9.88,0,0,1,7.6,0,5.86,5.86,0,0,1,2.7,2.45,8.77,8.77,0,0,1,1,4.5V18.84a8.75,8.75,0,0,1-1,4.5,5.86,5.86,0,0,1-2.7,2.45A9.18,9.18,0,0,1,47.37,26.55Zm0-2.2A5.15,5.15,0,0,0,51.14,23a5.66,5.66,0,0,0,1.35-4.18V7.71a5.62,5.62,0,0,0-1.37-4.18A5.15,5.15,0,0,0,47.37,2.2a5.07,5.07,0,0,0-3.75,1.33,5.74,5.74,0,0,0-1.33,4.18V18.84A5.66,5.66,0,0,0,43.64,23,5.08,5.08,0,0,0,47.37,24.35Z" transform="translate(-0.01)"/><path class="cls-1" d="M68.37,26.55a9.13,9.13,0,0,1-3.74-.76,5.8,5.8,0,0,1-2.74-2.45,8.75,8.75,0,0,1-1-4.5V7.71a8.56,8.56,0,0,1,1-4.5A6.09,6.09,0,0,1,64.68.76,9.12,9.12,0,0,1,68.44,0a9,9,0,0,1,4,.83A6.24,6.24,0,0,1,75,3a5.44,5.44,0,0,1,.88,3,1.56,1.56,0,0,1-.3,1.14,1.32,1.32,0,0,1-.89.27,1.3,1.3,0,0,1-.92-.27,1,1,0,0,1-.3-.63,5.23,5.23,0,0,0-.2-1.32,4.23,4.23,0,0,0-.72-1.44,3.77,3.77,0,0,0-1.51-1.15,6.29,6.29,0,0,0-2.58-.45,5.16,5.16,0,0,0-3.85,1.35,5.71,5.71,0,0,0-1.34,4.16V18.84A5.66,5.66,0,0,0,64.64,23a5.39,5.39,0,0,0,4,1.33,6,6,0,0,0,2.56-.45,3.56,3.56,0,0,0,1.4-1.11,4.45,4.45,0,0,0,.67-1.45,10.93,10.93,0,0,0,.27-1.42,1.13,1.13,0,0,1,.34-.7,1.25,1.25,0,0,1,.85-.24,1.28,1.28,0,0,1,.92.31,1.72,1.72,0,0,1,.3,1.17,5.42,5.42,0,0,1-.9,3,6.47,6.47,0,0,1-2.57,2.23A8.86,8.86,0,0,1,68.37,26.55Z" transform="translate(-0.01)"/><path class="cls-1" d="M88.55,26.55a9.18,9.18,0,0,1-3.82-.76A5.86,5.86,0,0,1,82,23.34a8.65,8.65,0,0,1-1-4.5V.9a.73.73,0,0,1,.36-.68A1.66,1.66,0,0,1,83,.22a.73.73,0,0,1,.36.68V18.84A5.63,5.63,0,0,0,84.76,23a6,6,0,0,0,7.6,0,5.59,5.59,0,0,0,1.37-4.16V.9a.73.73,0,0,1,.36-.68,1.68,1.68,0,0,1,1.66,0,.73.73,0,0,1,.36.68V18.84a8.86,8.86,0,0,1-1,4.5,5.76,5.76,0,0,1-2.72,2.45A9.42,9.42,0,0,1,88.55,26.55Z" transform="translate(-0.01)"/><path class="cls-1" d="M116.28,26.41a.93.93,0,0,1-.72-.42,5.52,5.52,0,0,1-.54-.85l-5.54-10.8H104.9V25.4a.76.76,0,0,1-.38.7,1.58,1.58,0,0,1-1.64,0,.78.78,0,0,1-.36-.7V.9a.83.83,0,0,1,.26-.61,1,1,0,0,1,.64-.29h6.38a11.26,11.26,0,0,1,3.89.65,5.71,5.71,0,0,1,2.83,2.2,7.4,7.4,0,0,1,1.06,4.25,8,8,0,0,1-.74,3.67,5.42,5.42,0,0,1-2,2.22A8.51,8.51,0,0,1,112,14.05l5.55,10.66a.47.47,0,0,1,.13.24,1.85,1.85,0,0,1,0,.23,1,1,0,0,1-.19.58,1.61,1.61,0,0,1-.53.47A1.3,1.3,0,0,1,116.28,26.41ZM104.9,12.28h4.9a6.17,6.17,0,0,0,3.91-1.17,4.61,4.61,0,0,0,1.49-3.87,4.61,4.61,0,0,0-1.49-3.89A6.22,6.22,0,0,0,109.8,2.2h-4.9Z" transform="translate(-0.01)"/><path class="cls-1" d="M126.39,20.33a1.34,1.34,0,0,1-.74-.23c-.23-.16-.28-.29-.34-.71l-2.4-16c-.36-2.33,0-2.78.34-3.11A1,1,0,0,1,124,0h12.82a.75.75,0,0,1,.69.34,1.41,1.41,0,0,1,.21.74,1.33,1.33,0,0,1-.23.78.79.79,0,0,1-.67.34H125l1.2,7.5h8.37a.78.78,0,0,1,.67.33,1.21,1.21,0,0,1,.23.75,1.27,1.27,0,0,1-.21.69.78.78,0,0,1-.69.32h-8l1.2,6.34h7.92a.78.78,0,0,1,.67.33,1.27,1.27,0,0,1,.23.79,1.41,1.41,0,0,1-.21.74.75.75,0,0,1-.69.34Z" transform="translate(-0.01)"/><path class="cls-1" d="M140.79,20.33a1.54,1.54,0,0,1-.83-.23.79.79,0,0,1-.36-.71L142,1.15a1,1,0,0,1,.36-.9,1.37,1.37,0,0,1,.82-.25,1.4,1.4,0,0,1,.78.23,2.64,2.64,0,0,1,.63.62,4.34,4.34,0,0,1,.5.84l6.2,11.93,6.16-11.93c.19-.31.38-.59.56-.84a2.32,2.32,0,0,1,.63-.62A1.4,1.4,0,0,1,159.4,0a1.38,1.38,0,0,1,.85.25,1,1,0,0,1,.34.9V25.4a.78.78,0,0,1-.36.7,1.44,1.44,0,0,1-.83.23,1.51,1.51,0,0,1-.81-.23.77.77,0,0,1-.37-.7V5.15l-6,11.31a1.7,1.7,0,0,1-.47.62.88.88,0,0,1-.51.18.79.79,0,0,1-.46-.18,2,2,0,0,1-.51-.62L144.38,5.08,142,19.39a.77.77,0,0,1-.38.71A1.55,1.55,0,0,1,140.79,20.33Z" transform="translate(-0.01)"/><path class="cls-1" d="M168.23,26.33a1.27,1.27,0,0,1-.74-.23.81.81,0,0,1-.34-.7V.94a.83.83,0,0,1,.34-.71,1.34,1.34,0,0,1,.74-.23h12.83a.74.74,0,0,1,.68.34,1.42,1.42,0,0,1,.22.74,1.33,1.33,0,0,1-.24.78.77.77,0,0,1-.66.34H169.53v9.9h5.65a.78.78,0,0,1,.67.33,1.21,1.21,0,0,1,.23.75,1.24,1.24,0,0,1-.21.69.76.76,0,0,1-.69.32h-5.65v10h11.53a.75.75,0,0,1,.66.32,1.3,1.3,0,0,1,.24.79,1.39,1.39,0,0,1-.22.74.74.74,0,0,1-.68.34Z" transform="translate(-0.01)"/><path class="cls-1" d="M187.72,26.33a1.46,1.46,0,0,1-.83-.23.78.78,0,0,1-.36-.7V.9a.72.72,0,0,1,.36-.7,1.73,1.73,0,0,1,.83-.2,1.31,1.31,0,0,1,.76.23,3,3,0,0,1,.61.62,4.34,4.34,0,0,1,.5.84l9.73,19.13V.9a.73.73,0,0,1,.36-.68,1.64,1.64,0,0,1,1.64,0,.73.73,0,0,1,.38.68V25.4a.78.78,0,0,1-.38.7,1.46,1.46,0,0,1-.81.23,1.26,1.26,0,0,1-.92-.41,3.25,3.25,0,0,1-.67-1l-10-19.48V25.4a.78.78,0,0,1-.38.7A1.46,1.46,0,0,1,187.72,26.33Z" transform="translate(-0.01)"/><path class="cls-1" d="M214.13,26.33a1.46,1.46,0,0,1-.83-.23.78.78,0,0,1-.36-.7V2.23h-6.05a.81.81,0,0,1-.69-.34,1.25,1.25,0,0,1-.25-.77,1.27,1.27,0,0,1,.25-.78.81.81,0,0,1,.69-.34h14.44a.76.76,0,0,1,.69.34,1.41,1.41,0,0,1,.21.74,1.53,1.53,0,0,1-.21.79.76.76,0,0,1-.69.36h-6V25.4a.78.78,0,0,1-.38.7A1.46,1.46,0,0,1,214.13,26.33Z" transform="translate(-0.01)"/><path class="cls-1" d="M229.58,24a2.32,2.32,0,0,1-1.1-.34,1,1,0,0,1-.59-.91V19.87a3.86,3.86,0,0,1,.68-2.17,9.14,9.14,0,0,1,1.78-1.94c.73-.61,1.5-1.21,2.31-1.78s1.57-1.15,2.29-1.75a11.15,11.15,0,0,0,1.78-1.8,3.19,3.19,0,0,0,.69-2,2.82,2.82,0,0,0-.28-1.22,2.39,2.39,0,0,0-.89-1,2.78,2.78,0,0,0-1.58-.4,2.9,2.9,0,0,0-1.85.61,2.37,2.37,0,0,0-.79,2,1.24,1.24,0,0,1-.53,1,2.22,2.22,0,0,1-1.48.45,1.72,1.72,0,0,1-1.24-.45,2.17,2.17,0,0,1-.48-1.63,4.85,4.85,0,0,1,.89-2.91A5.64,5.64,0,0,1,231.55,3a7.71,7.71,0,0,1,6.35.07,6.27,6.27,0,0,1,2.44,2.06,5.49,5.49,0,0,1,.93,3.23,6,6,0,0,1-.68,2.84,9.27,9.27,0,0,1-1.75,2.31,19.26,19.26,0,0,1-2.26,1.88L234.31,17a10.72,10.72,0,0,0-1.74,1.43,2.12,2.12,0,0,0-.68,1.48v.74h8.23a1,1,0,0,1,.85.49,1.94,1.94,0,0,1,.36,1.17,2.07,2.07,0,0,1-.36,1.2,1,1,0,0,1-.85.52Z" transform="translate(-0.01)"/><path class="cls-1" d="M252.61,24a3,3,0,0,1-1.32-.31,1,1,0,0,1-.6-.94V19.28h-7.11a1.32,1.32,0,0,1-1-.37,1.34,1.34,0,0,1-.38-1,1.43,1.43,0,0,1,.06-.39,4.14,4.14,0,0,1,.15-.41l7-13.77a1.65,1.65,0,0,1,.71-.78,2,2,0,0,1,.92-.22,2.35,2.35,0,0,1,.8.17,2.32,2.32,0,0,1,.78.52,1.09,1.09,0,0,1,.35.79,1.38,1.38,0,0,1-.15.5L247.19,15.7h3.5V12.59a1,1,0,0,1,.6-.93,3.25,3.25,0,0,1,2.64,0,1,1,0,0,1,.6.93V15.7h1.37a1,1,0,0,1,.93.56,2.45,2.45,0,0,1,.31,1.21,2.15,2.15,0,0,1-.39,1.25,1.06,1.06,0,0,1-.85.56h-1.37v3.46a1,1,0,0,1-.6.94A3,3,0,0,1,252.61,24Z" transform="translate(-0.01)"/><path class="cls-1" d="M271.37,26.55a9.08,9.08,0,0,1-3.78-.76,5.93,5.93,0,0,1-2.71-2.45,8.75,8.75,0,0,1-1-4.5V7.71a8.77,8.77,0,0,1,1-4.5A5.93,5.93,0,0,1,267.59.76a9.88,9.88,0,0,1,7.6,0,5.86,5.86,0,0,1,2.7,2.45,8.77,8.77,0,0,1,1,4.5V18.84a8.75,8.75,0,0,1-1,4.5,5.86,5.86,0,0,1-2.7,2.45A9.18,9.18,0,0,1,271.37,26.55Zm0-2.2A5.11,5.11,0,0,0,275.13,23a5.66,5.66,0,0,0,1.35-4.18V7.71a5.62,5.62,0,0,0-1.36-4.18,5.16,5.16,0,0,0-3.75-1.33,5.07,5.07,0,0,0-3.75,1.33,5.7,5.7,0,0,0-1.33,4.18V18.84A5.66,5.66,0,0,0,267.64,23,5.07,5.07,0,0,0,271.37,24.35Z" transform="translate(-0.01)"/><path class="cls-1" d="M298.93,26.41a.9.9,0,0,1-.72-.42,4.33,4.33,0,0,1-.54-.85l-5.55-10.8h-4.58V25.4a.77.77,0,0,1-.37.7,1.51,1.51,0,0,1-.81.23,1.44,1.44,0,0,1-.83-.23.78.78,0,0,1-.36-.7V.9a.82.82,0,0,1,.25-.61,1,1,0,0,1,.65-.29h6.37a11.22,11.22,0,0,1,3.89.65,5.71,5.71,0,0,1,2.83,2.2,7.4,7.4,0,0,1,1.07,4.25,8,8,0,0,1-.74,3.67,5.51,5.51,0,0,1-2,2.22,8.43,8.43,0,0,1-2.87,1.06l5.55,10.66a.36.36,0,0,1,.13.24,2,2,0,0,1,0,.23,1,1,0,0,1-.2.58,1.57,1.57,0,0,1-.52.47A1.36,1.36,0,0,1,298.93,26.41ZM287.54,12.28h4.9a6.15,6.15,0,0,0,3.91-1.17,4.61,4.61,0,0,0,1.5-3.87,4.62,4.62,0,0,0-1.5-3.89,6.2,6.2,0,0,0-3.91-1.15h-4.9Z" transform="translate(-0.01)"/><path class="cls-1" d="M306.35,26.33a1.25,1.25,0,0,1-.74-.23.79.79,0,0,1-.34-.7V.94a.81.81,0,0,1,.34-.71,1.32,1.32,0,0,1,.74-.23h12.82a.75.75,0,0,1,.69.34,1.41,1.41,0,0,1,.21.74,1.33,1.33,0,0,1-.23.78.79.79,0,0,1-.67.34H307.64v9.9h5.66a.78.78,0,0,1,.67.33,1.28,1.28,0,0,1,.23.75,1.24,1.24,0,0,1-.21.69.77.77,0,0,1-.69.32h-5.66v10h11.53a.77.77,0,0,1,.67.32,1.29,1.29,0,0,1,.23.79,1.38,1.38,0,0,1-.21.74.75.75,0,0,1-.69.34Z" transform="translate(-0.01)"/><path class="cls-1" d="M125.57,19.13a1.2,1.2,0,0,1,1.2-1.2H140.3a1.2,1.2,0,0,1,0,2.4H126.77A1.2,1.2,0,0,1,125.57,19.13Z" transform="translate(-0.01)"/><circle class="cls-1" cx="129.23" cy="24.96" r="1.38"/><circle class="cls-1" cx="137.3" cy="24.96" r="1.38"/><path class="cls-1" d="M1.2,26.41a1.47,1.47,0,0,1-.83-.24.77.77,0,0,1-.36-.7V.9A.8.8,0,0,1,.28.29,1.16,1.16,0,0,1,1,0H7.65a9.08,9.08,0,0,1,3.78.76A5.7,5.7,0,0,1,14.1,3.19a8.9,8.9,0,0,1,1,4.45V8a8.88,8.88,0,0,1-1,4.5A5.76,5.76,0,0,1,11.38,15a9.42,9.42,0,0,1-3.81.76H2.39v9.76a.77.77,0,0,1-.38.7A1.47,1.47,0,0,1,1.2,26.41ZM2.39,13.62H7.57a5.1,5.1,0,0,0,3.77-1.35,5.67,5.67,0,0,0,1.35-4.16v-.4a5.67,5.67,0,0,0-1.35-4.16A5.1,5.1,0,0,0,7.57,2.2H2.39Z" transform="translate(-0.01)"/></g></g></svg>