<?xml version="1.0" encoding="utf-8"?>
<!-- Generator: Adobe Illustrator 26.0.3, SVG Export Plug-In . SVG Version: 6.00 Build 0)  -->
<svg version="1.1" id="Livello_1" xmlns="http://www.w3.org/2000/svg" xmlns:xlink="http://www.w3.org/1999/xlink" x="0px" y="0px"
	 viewBox="0 0 32.6 26" style="enable-background:new 0 0 32.6 26;" xml:space="preserve">
<style type="text/css">
	.st0{fill:#FFFFFF;}
	.st1{fill:#16C8F2;}
</style>
<g id="Livello_2_00000065774112225901065400000004651745725708891837_">
	<g id="Livello_1-2">
		<path class="st0" d="M12,25H1v-7.9c-0.1-2.5,0.2-5.1,0.8-7.5C2.4,7.7,3.5,6,5,4.7C6.7,3.1,8.6,2,10.8,1.2l2.1,4.5
			c-1.9,0.5-3.5,1.6-4.8,3c-1,1.5-1.5,3.3-1.5,5.2H12V25z M30.3,25h-11v-7.9c-0.1-2.5,0.2-5.1,0.8-7.5c0.6-1.9,1.7-3.6,3.1-4.9
			C24.9,3.1,26.9,2,29,1.2l2.2,4.5c-1.8,0.5-3.5,1.6-4.7,3c-1,1.5-1.5,3.3-1.5,5.2h5.3V25z"/>
		<path class="st1" d="M31.3,26h-13v-8.9c-0.1-2.6,0.2-5.3,0.9-7.8c0.7-2,1.8-3.9,3.4-5.3c1.8-1.6,3.8-2.9,6.1-3.7L29.6,0l3,6.4
			l-1.1,0.4c-1.6,0.4-3.1,1.4-4.2,2.7c-0.7,1.1-1.2,2.3-1.2,3.6h5.2V26z M20.3,24h9v-9H24v-1c0-2,0.6-4.1,1.7-5.8
			c1.1-1.4,2.5-2.4,4.1-3l-1.3-2.7c-1.7,0.7-3.2,1.6-4.6,2.9c-1.3,1.2-2.3,2.8-2.9,4.5c-0.6,2.4-0.9,4.8-0.8,7.2L20.3,24z M13,26H0
			v-8.9c-0.1-2.6,0.2-5.3,0.9-7.8c0.6-2,1.8-3.9,3.4-5.3C6,2.3,8.1,1.1,10.4,0.3L11.2,0l3,6.4l-1.1,0.4C11.5,7.2,10.1,8.1,9,9.4
			c-0.7,1.1-1.2,2.3-1.3,3.6H13V26z M2,24h9v-9H5.6v-1c0-2,0.6-4.1,1.7-5.8c1.1-1.4,2.5-2.4,4.1-3l-1.3-2.7C8.5,3.2,7,4.2,5.6,5.4
			C4.3,6.6,3.3,8.2,2.8,9.9c-0.6,2.4-0.9,4.8-0.8,7.2V24z"/>
	</g>
</g>
</svg>
