<svg xmlns="http://www.w3.org/2000/svg" xmlns:xlink="http://www.w3.org/1999/xlink" viewBox="0 0 32.58 26"><defs><style>.cls-1{fill:#fff;}.cls-2{fill:url(#Sfumatura_senza_nome_13);}</style><linearGradient id="Sfumatura_senza_nome_13" y1="13" x2="32.58" y2="13" gradientUnits="userSpaceOnUse"><stop offset="0" stop-color="#f6921e"/><stop offset="1" stop-color="#ffbe06"/></linearGradient></defs><g id="Livello_2" data-name="Livello 2"><g id="Livello_1-2" data-name="Livello 1"><path class="cls-1" d="M12,25H1V17.15a26.72,26.72,0,0,1,.84-7.52A11.32,11.32,0,0,1,5,4.69a15.68,15.68,0,0,1,5.78-3.44l2.15,4.53A9.18,9.18,0,0,0,8.17,8.83,9,9,0,0,0,6.66,14H12ZM30.3,25h-11V17.15a26.68,26.68,0,0,1,.84-7.54,11.33,11.33,0,0,1,3.13-4.92,15.93,15.93,0,0,1,5.76-3.44L31.2,5.78a9.18,9.18,0,0,0-4.71,3.05A9,9,0,0,0,25,14H30.3Z"/><path class="cls-2" d="M31.3,26h-13V17.15a27.64,27.64,0,0,1,.88-7.84A12.59,12.59,0,0,1,22.59,4,17.17,17.17,0,0,1,28.71.31L29.56,0l3,6.37-1.07.36A8.3,8.3,0,0,0,27.3,9.42,7.2,7.2,0,0,0,26.05,13H31.3Zm-11-2h9V15H24l0-1a10,10,0,0,1,1.7-5.76,9.49,9.49,0,0,1,4.14-3l-1.28-2.7A14.35,14.35,0,0,0,24,5.41,10.31,10.31,0,0,0,21.12,9.9a25.85,25.85,0,0,0-.8,7.25ZM13,26H0V17.15A27.68,27.68,0,0,1,.88,9.33,12.49,12.49,0,0,1,4.25,4,16.79,16.79,0,0,1,10.39.31L11.24,0l3,6.37-1.07.36A8.25,8.25,0,0,0,9,9.42,7.2,7.2,0,0,0,7.73,13H13ZM2,24h9V15H5.64l0-1a10,10,0,0,1,1.7-5.76,9.49,9.49,0,0,1,4.14-3L10.22,2.51a14.31,14.31,0,0,0-4.58,2.9A10.45,10.45,0,0,0,2.8,9.92,25.84,25.84,0,0,0,2,17.15Z"/></g></g></svg>