<svg xmlns="http://www.w3.org/2000/svg" xmlns:xlink="http://www.w3.org/1999/xlink" viewBox="0 0 1589.96 1664.41"><defs><style>.cls-1,.cls-5{fill:none;}.cls-2{isolation:isolate;}.cls-3{fill:#097a9b;}.cls-4{clip-path:url(#clip-path);}.cls-5{stroke:#fff;stroke-miterlimit:10;stroke-width:2px;mix-blend-mode:overlay;opacity:0.4;}</style><clipPath id="clip-path" transform="translate(180.83 542.74)"><path class="cls-1" d="M10.33,0,627.1.32c5.7,0,10.31,7.52,10.31,16.79l0,426.19c0,9.27-4.62,16.79-10.31,16.79H10.35C4.66,460.09,0,452.58,0,443.31,0,371.3,0,88.76,0,16.76,0,7.5,4.64,0,10.33,0Z"/></clipPath></defs><g class="cls-2"><g id="Livello_2" data-name="Livello 2"><g id="Livello_1-2" data-name="Livello 1"><rect class="cls-3" x="180.83" y="542.74" width="637.43" height="460.09" rx="22.48"/><g class="cls-4"><path class="cls-5" d="M1153.8-480.8a42.52,42.52,0,0,1,17.83-10.7,39.15,39.15,0,0,1,21.41-.39,39.85,39.85,0,0,1,12,5.28,12.21,12.21,0,0,0,16.25-3.15l12.36-16.36a12.43,12.43,0,0,0-2.09-17.19,81.93,81.93,0,0,0-32.41-15.94,88.64,88.64,0,0,0-44.78.79,85.93,85.93,0,0,0-38.24,22.4q-19,19-24.37,39.82t2.58,42.61q7.92,21.78,29.72,43.58l38.84,38.84q13.47,13.47,13.46,28.14t-9.9,24.57a35.5,35.5,0,0,1-25,10.7q-14.67.39-27-11.89l-40-40,0,0-84.35-84.36q-17.44-17.44-39-22.79a83,83,0,0,0-42.2.2,79.4,79.4,0,0,0-36.06,21q-18.24,18.22-22.79,39t3.37,41.8q7.92,21,27.34,40.42l40.81,40.82q9.12,9.12,11.9,19.42a34.24,34.24,0,0,1-.21,19.62,40.17,40.17,0,0,1-10.09,16.44,42.49,42.49,0,0,1-17.84,10.7,38.94,38.94,0,0,1-20.74.55,80.18,80.18,0,0,0-13.41-5.86,11.51,11.51,0,0,0-4.65-1.38c-.69-.18-1.38-.36-2.08-.52a88.64,88.64,0,0,0-44.78.79,86,86,0,0,0-38.24,22.39q-19,19-24.37,39.83T759.71-99q7.92,21.78,29.72,43.58l38.84,38.84q13.47,13.47,13.46,28.13t-9.9,24.58a35.48,35.48,0,0,1-25,10.7q-14.67.39-27-11.89l-40-40s0,0,0,0L655.56-89.42q-17.44-17.44-39-22.79a83,83,0,0,0-42.2.2,79.4,79.4,0,0,0-36.06,21Q520-72.77,515.47-52t3.37,41.8q7.92,21,27.34,40.42L587,71.08q9.11,9.12,11.89,19.42a34.2,34.2,0,0,1-.21,19.61,40.21,40.21,0,0,1-10.09,16.45,42.49,42.49,0,0,1-17.84,10.7,39.21,39.21,0,0,1-21.4.4,40.52,40.52,0,0,1-12-5.28,11.37,11.37,0,0,0-3.32-1.46,79.06,79.06,0,0,0-20.85-8.15,88.75,88.75,0,0,0-44.78.78A86,86,0,0,0,430.13,146q-19,19-24.37,39.83t2.58,42.6q7.92,21.8,29.72,43.59L476.9,310.8q13.47,13.49,13.46,28.14t-9.9,24.58a35.5,35.5,0,0,1-25,10.7q-14.67.38-27-11.9l-40-40,0-.05L304.19,238q-17.44-17.44-39-22.79a83,83,0,0,0-42.2.2,79.38,79.38,0,0,0-36.06,21q-18.24,18.24-22.79,39t3.37,41.81q7.92,21,27.34,40.42l40.81,40.82q9.12,9.1,11.9,19.41a34.23,34.23,0,0,1-.21,19.62,40.21,40.21,0,0,1-10.09,16.45,42.49,42.49,0,0,1-17.84,10.7,39,39,0,0,1-20.74.55,80.18,80.18,0,0,0-13.41-5.86,11.53,11.53,0,0,0-4.65-1.39c-.69-.18-1.38-.35-2.08-.51a88.64,88.64,0,0,0-44.78.78,86,86,0,0,0-38.24,22.4q-19,19-24.37,39.83T73.69,563q7.92,21.79,29.72,43.59l38.84,38.83q13.47,13.49,13.46,28.14t-9.9,24.58a35.48,35.48,0,0,1-25,10.7q-14.67.38-27-11.9l-40-40,0,0L-30.46,572.6q-17.44-17.45-39-22.79a83,83,0,0,0-42.2.2,79.38,79.38,0,0,0-36.06,21q-18.24,18.24-22.79,39t3.37,41.81q7.92,21,27.34,40.42L-99,733.1q9.1,9.1,11.89,19.41a34.23,34.23,0,0,1-.21,19.62,40.27,40.27,0,0,1-10.09,16.45,42.47,42.47,0,0,1-17.84,10.69,39,39,0,0,1-21.4.4,39.91,39.91,0,0,1-12-5.28,12.21,12.21,0,0,0-16.25,3.15L-177.3,813.9a12.43,12.43,0,0,0,2.08,17.19A82,82,0,0,0-142.81,847,88.63,88.63,0,0,0-98,846.24a85.82,85.82,0,0,0,38.24-22.4q19-19,24.37-39.82T-38,741.41q-7.93-21.78-29.73-43.59L-106.55,659Q-120,645.52-120,630.85t9.91-24.57a35.46,35.46,0,0,1,25-10.7q14.66-.39,27,11.89l40,40,0,0,84.36,84.36q17.45,17.45,39,22.79a83,83,0,0,0,42.2-.2,79.43,79.43,0,0,0,36.07-21q18.22-18.23,22.78-39t-3.37-41.8q-7.92-21-27.33-40.43l-40.82-40.81q-9.12-9.12-11.9-19.42a34.23,34.23,0,0,1,.21-19.62,40.3,40.3,0,0,1,10.1-16.44A42.52,42.52,0,0,1,151,505.17a39,39,0,0,1,20.75-.55,79.47,79.47,0,0,0,13.41,5.86,11.51,11.51,0,0,0,4.64,1.38c.69.18,1.38.36,2.08.52a88.63,88.63,0,0,0,44.78-.79,85.87,85.87,0,0,0,38.24-22.4q19-19,24.37-39.82t-2.57-42.61q-7.94-21.78-29.73-43.58L228.1,324.34q-13.48-13.47-13.47-28.13t9.9-24.58a35.5,35.5,0,0,1,25-10.7q14.65-.39,26.95,11.89l40,40,0,0,84.36,84.36q17.44,17.44,39,22.79a83,83,0,0,0,42.2-.2,79.43,79.43,0,0,0,36.07-21q18.23-18.22,22.78-39t-3.37-41.8q-7.92-21-27.34-40.42L469.37,236.7q-9.12-9.12-11.9-19.42a34.2,34.2,0,0,1,.21-19.61,40.23,40.23,0,0,1,10.1-16.45,42.52,42.52,0,0,1,17.83-10.7,39.25,39.25,0,0,1,21.41-.4,40.36,40.36,0,0,1,12,5.28,11.37,11.37,0,0,0,3.32,1.46A79.06,79.06,0,0,0,543.21,185a88.75,88.75,0,0,0,44.78-.78,86,86,0,0,0,38.24-22.4q19-19,24.37-39.83T648,79.4Q640.1,57.61,618.3,35.81L579.47-3Q566-16.5,566-31.16t9.91-24.58a35.46,35.46,0,0,1,25-10.7q14.65-.37,27,11.89l40,40,0,.06,84.36,84.35q17.45,17.44,39,22.79a83,83,0,0,0,42.2-.2,79.41,79.41,0,0,0,36.07-21q18.22-18.24,22.78-39T888.89-9.43q-7.9-21-27.33-40.42L820.74-90.67q-9.12-9.12-11.9-19.41a34.23,34.23,0,0,1,.21-19.62,40.34,40.34,0,0,1,10.1-16.45A42.52,42.52,0,0,1,837-156.85a39.08,39.08,0,0,1,20.75-.55,79.47,79.47,0,0,0,13.41,5.86,11.53,11.53,0,0,0,4.64,1.39c.69.18,1.38.35,2.08.51a88.75,88.75,0,0,0,44.78-.78,86.06,86.06,0,0,0,38.24-22.4q19-19,24.37-39.83t-2.57-42.6Q974.75-277,953-298.84l-38.83-38.83q-13.49-13.49-13.47-28.14t9.9-24.58a35.5,35.5,0,0,1,25-10.7q14.65-.37,27,11.9l40,40,0,.05,84.36,84.35q17.45,17.44,39,22.79a83,83,0,0,0,42.2-.2,79.41,79.41,0,0,0,36.07-21q18.22-18.24,22.78-39t-3.37-41.81q-7.92-21-27.34-40.42l-40.81-40.82q-9.12-9.1-11.9-19.41a34.23,34.23,0,0,1,.21-19.62A40.23,40.23,0,0,1,1153.8-480.8Z" transform="translate(180.83 542.74)"/><path class="cls-5" d="M1325.73-209.65a42.52,42.52,0,0,1,17.83-10.7,39.25,39.25,0,0,1,21.41-.4,40.13,40.13,0,0,1,12,5.29,12.22,12.22,0,0,0,16.25-3.15L1405.6-235a12.44,12.44,0,0,0-2.08-17.19,82,82,0,0,0-32.42-15.94,88.64,88.64,0,0,0-44.78.79,86,86,0,0,0-38.24,22.39q-19,19-24.37,39.83t2.58,42.61q7.92,21.78,29.72,43.58l38.84,38.84q13.47,13.47,13.46,28.13t-9.9,24.58a35.46,35.46,0,0,1-25,10.7q-14.65.39-27-11.89l-40-40s0,0,0-.06l-84.35-84.35q-17.45-17.45-39-22.79a83,83,0,0,0-42.2.2,79.31,79.31,0,0,0-36.06,21q-18.24,18.23-22.79,39t3.37,41.8q7.92,21,27.34,40.42l40.82,40.82q9.11,9.12,11.89,19.42a34.2,34.2,0,0,1-.21,19.61,40.21,40.21,0,0,1-10.09,16.45,42.49,42.49,0,0,1-17.84,10.7,38.94,38.94,0,0,1-20.74.55,80.18,80.18,0,0,0-13.41-5.86,11.36,11.36,0,0,0-4.65-1.38c-.69-.18-1.38-.36-2.07-.52a88.67,88.67,0,0,0-44.79.79,86,86,0,0,0-38.24,22.39q-19,19-24.37,39.83t2.58,42.61q7.92,21.78,29.72,43.58l38.84,38.84q13.47,13.47,13.46,28.13t-9.9,24.58a35.46,35.46,0,0,1-25,10.7q-14.65.38-26.95-11.89l-40-40,0-.06-84.35-84.35q-17.44-17.44-39-22.79a83,83,0,0,0-42.2.2,79.31,79.31,0,0,0-36.06,21q-18.24,18.22-22.79,39t3.37,41.8q7.92,21,27.34,40.42l40.82,40.82q9.11,9.12,11.89,19.42a34.2,34.2,0,0,1-.2,19.61,40.34,40.34,0,0,1-10.1,16.45,42.49,42.49,0,0,1-17.84,10.7,39.21,39.21,0,0,1-21.4.4,40.36,40.36,0,0,1-12-5.28,11.42,11.42,0,0,0-3.33-1.46,79.06,79.06,0,0,0-20.85-8.15,88.64,88.64,0,0,0-44.78.78,86,86,0,0,0-38.24,22.4q-19,19-24.37,39.83t2.58,42.6q7.92,21.79,29.72,43.59L648.83,582q13.47,13.49,13.46,28.14t-9.9,24.57a35.43,35.43,0,0,1-25,10.71q-14.65.38-26.95-11.9l-40-40s0,0,0,0L476.12,509.1q-17.44-17.44-39-22.79a82.86,82.86,0,0,0-42.2.2,79.38,79.38,0,0,0-36.06,21q-18.24,18.24-22.79,39t3.37,41.81q7.92,21,27.34,40.42l40.82,40.82q9.1,9.1,11.89,19.41a34.23,34.23,0,0,1-.21,19.62,40.27,40.27,0,0,1-10.09,16.45,42.47,42.47,0,0,1-17.84,10.69,39,39,0,0,1-20.74.56,80.23,80.23,0,0,0-13.41-5.87,11.67,11.67,0,0,0-4.65-1.38q-1-.27-2.07-.51a88.67,88.67,0,0,0-44.79.78,85.93,85.93,0,0,0-38.24,22.4q-19,19-24.37,39.82t2.58,42.61q7.92,21.8,29.72,43.59l38.84,38.83q13.47,13.49,13.46,28.14t-9.9,24.57a35.43,35.43,0,0,1-25,10.71q-14.65.38-26.95-11.9l-40-40s0,0,0,0l-84.35-84.35q-17.44-17.44-39-22.8a83.08,83.08,0,0,0-42.2.2,79.48,79.48,0,0,0-36.06,21Q5.93,860.4,1.38,881.2A72.32,72.32,0,0,0,4.75,923q7.92,21,27.34,40.43l40.82,40.82q9.11,9.11,11.89,19.41a34.23,34.23,0,0,1-.2,19.62,40.4,40.4,0,0,1-10.1,16.45,42.47,42.47,0,0,1-17.84,10.69,39,39,0,0,1-21.4.4,39.85,39.85,0,0,1-12-5.28A12.22,12.22,0,0,0,7,1068.68l-12.36,16.37a12.43,12.43,0,0,0,2.08,17.19,82.13,82.13,0,0,0,32.41,15.94,88.75,88.75,0,0,0,44.78-.79,85.91,85.91,0,0,0,38.25-22.4q19-19,24.37-39.82t-2.58-42.61Q126,990.77,104.21,969L65.38,930.14Q51.9,916.66,51.91,902t9.91-24.57a35.47,35.47,0,0,1,25-10.71q14.66-.37,27,11.9l40,40s0,0,0,0L238.09,1003q17.44,17.43,39,22.79a83.08,83.08,0,0,0,42.2-.2,79.52,79.52,0,0,0,36.07-21q18.23-18.23,22.78-39t-3.37-41.8q-7.91-21-27.33-40.43L306.65,842.5q-9.12-9.12-11.9-19.42a34.23,34.23,0,0,1,.21-19.62A40.3,40.3,0,0,1,305.06,787a42.52,42.52,0,0,1,17.83-10.7,39.08,39.08,0,0,1,20.75-.56,78.72,78.72,0,0,0,13.41,5.87A11.67,11.67,0,0,0,361.7,783l2.07.52a88.63,88.63,0,0,0,44.78-.79,85.82,85.82,0,0,0,38.24-22.4q19-19,24.37-39.82t-2.57-42.61q-7.93-21.78-29.73-43.59L400,595.49Q386.55,582,386.56,567.35t9.91-24.57a35.46,35.46,0,0,1,25-10.7q14.65-.39,26.95,11.89l40,40,0,0,84.36,84.36q17.44,17.43,39,22.79a83,83,0,0,0,42.2-.2,79.52,79.52,0,0,0,36.07-21q18.23-18.23,22.78-39t-3.37-41.8q-7.91-21-27.33-40.43L641.3,507.85q-9.12-9.12-11.9-19.42a34.23,34.23,0,0,1,.21-19.62,40.3,40.3,0,0,1,10.1-16.44,42.52,42.52,0,0,1,17.83-10.7,39.25,39.25,0,0,1,21.41-.4,39.85,39.85,0,0,1,12,5.28,11.37,11.37,0,0,0,3.32,1.46,79.06,79.06,0,0,0,20.85,8.15,88.63,88.63,0,0,0,44.78-.79A86,86,0,0,0,798.17,433q19-19,24.37-39.83T820,350.54Q812,328.76,790.23,307L751.4,268.12Q737.92,254.65,737.93,240t9.91-24.58a35.46,35.46,0,0,1,25-10.7q14.66-.39,27,11.89l40,40s0,0,0,.06L924.11,341q17.45,17.44,39,22.79a83,83,0,0,0,42.2-.2,79.34,79.34,0,0,0,36.07-21q18.22-18.22,22.78-39t-3.37-41.8q-7.9-21-27.33-40.42l-40.82-40.82q-9.12-9.12-11.89-19.42a34.12,34.12,0,0,1,.2-19.61A40.34,40.34,0,0,1,991.08,125a42.52,42.52,0,0,1,17.83-10.7,39,39,0,0,1,20.75-.55,79.47,79.47,0,0,0,13.41,5.86,11.36,11.36,0,0,0,4.65,1.38c.68.19,1.38.36,2.07.52a88.75,88.75,0,0,0,44.78-.78,86.09,86.09,0,0,0,38.25-22.4q19-19,24.36-39.83t-2.57-42.61q-7.93-21.78-29.73-43.58l-38.83-38.84Q1072.57-80,1072.58-94.66t9.91-24.58a35.46,35.46,0,0,1,25-10.7q14.65-.37,27,11.89l40,40,0,.06,84.36,84.35q17.45,17.45,39,22.79a83,83,0,0,0,42.2-.2,79.34,79.34,0,0,0,36.07-21q18.23-18.23,22.78-39t-3.37-41.81q-7.9-21-27.33-40.42l-40.82-40.82q-9.12-9.12-11.9-19.42a34.2,34.2,0,0,1,.21-19.61A40.34,40.34,0,0,1,1325.73-209.65Z" transform="translate(180.83 542.74)"/></g></g></g></g></svg>