<?xml version="1.0" encoding="utf-8"?>
<!-- Generator: Adobe Illustrator 26.0.1, SVG Export Plug-In . SVG Version: 6.00 Build 0)  -->
<svg version="1.1" id="Livello_1" xmlns="http://www.w3.org/2000/svg" xmlns:xlink="http://www.w3.org/1999/xlink" x="0px" y="0px"
	 viewBox="0 0 240.9 155.9" style="enable-background:new 0 0 240.9 155.9;" xml:space="preserve">
<style type="text/css">
	.st0{fill:#FFFFFF;}
</style>
<g id="Livello_1_00000012460590102155625890000003699081938774067647_">
	<g>
		<g id="XMLID_64_">
			<path id="XMLID_33_" class="st0" d="M132.3,63.7h-5.5V47.2h-4.6v-4.7h14.6v4.7h-4.6v16.5H132.3z"/>
			<path id="XMLID_31_" class="st0" d="M152.3,50.7v-8.2h5.5v21.2h-5.5V55h-8v8.7h-5.5V42.5h5.5v8.2H152.3z"/>
			<path id="XMLID_28_" class="st0" d="M39.1,67.3h8.4c4.6,0,7.7,2.1,7.7,7c0,5-2.7,7.2-7.5,7.2h-3.1v7h-5.5
				C39.1,88.5,39.1,67.3,39.1,67.3z M44.6,77.1h0.9c2,0,4,0,4-2.6c0-2.7-1.8-2.7-4-2.7h-0.9V77.1z"/>
			<path id="XMLID_25_" class="st0" d="M75.4,88.6h-6.9l-5.2-8.2h-0.1v8.2h-5.5V67.3H66c4.2,0,7.4,2,7.4,6.5c0,2.9-1.6,5.5-4.6,6
				L75.4,88.6z M63.2,76.9h0.5c1.8,0,3.8-0.3,3.8-2.6s-2-2.6-3.8-2.6h-0.5V76.9z"/>
			<path id="XMLID_22_" class="st0" d="M99.3,77.6c0,6.9-4.9,11.7-11.7,11.7s-11.7-4.8-11.7-11.7c0-6.4,5.6-10.9,11.7-10.9
				C93.6,66.6,99.3,71.1,99.3,77.6z M81.5,77.6c0,3.7,2.7,6.3,6,6.3s6-2.7,6-6.3c0-2.9-2.7-5.6-6-5.6S81.5,74.7,81.5,77.6z"/>
			<path id="XMLID_20_" class="st0" d="M117,74.5c-1.1-1.5-3-2.3-4.8-2.3c-3.4,0-5.7,2.6-5.7,5.9s2.3,5.8,5.7,5.8
				c1.8,0,3.6-0.9,4.8-2.3v6.6c-1.8,0.6-3.2,1-4.9,1c-3,0-5.8-1.1-8-3.1c-2.3-2.1-3.4-4.9-3.4-8c0-2.9,1.1-5.7,3.1-7.8
				c2.1-2.1,5.1-3.4,8.1-3.4c1.8,0,3.4,0.4,5,1.1v6.5H117z"/>
			<path id="XMLID_18_" class="st0" d="M138.8,67.3v11.9c0,2.7-0.1,5.4-2.2,7.5c-1.8,1.7-4.6,2.4-7,2.4c-2.5,0-5.3-0.6-7-2.4
				c-2.1-2.1-2.2-4.8-2.2-7.5V67.3h5.5v11.2c0,2.8,0.2,5.8,3.7,5.8s3.7-3,3.7-5.8V67.3H138.8z"/>
			<path id="XMLID_15_" class="st0" d="M159.9,88.6H153l-5.2-8.2h-0.1v8.2h-5.5V67.3h8.2c4.2,0,7.4,2,7.4,6.5c0,2.9-1.6,5.5-4.6,6
				L159.9,88.6z M147.8,76.9h0.5c1.8,0,3.8-0.3,3.8-2.6s-2-2.6-3.8-2.6h-0.5V76.9z"/>
			<path id="XMLID_13_" class="st0" d="M136.1,92.2h5.4l4.3,11.3l4.6-11.3h5.5l3.2,21.2h-5.5l-1.5-12.2H152l-5.1,12.2h-2.2
				l-4.9-12.2h-0.1l-1.8,12.2h-5.5L136.1,92.2z"/>
			<path id="XMLID_11_" class="st0" d="M177.6,92.2h5.5l10.1,13h0.1v-13h5.5v21.2h-5.5l-10.1-13h-0.1v13h-5.5V92.2z"/>
			<rect id="XMLID_10_" x="161.4" y="108.7" class="st0" width="12.1" height="4.7"/>
			<rect id="XMLID_9_" x="161.4" y="100.4" class="st0" width="12.1" height="4.7"/>
			<rect id="XMLID_8_" x="161.4" y="92.2" class="st0" width="12.1" height="4.7"/>
			<rect id="XMLID_7_" x="161.4" y="83.9" class="st0" width="12.1" height="4.7"/>
			<rect id="XMLID_6_" x="161.4" y="75.6" class="st0" width="12.1" height="4.7"/>
			<rect id="XMLID_5_" x="161.4" y="67.3" class="st0" width="12.1" height="4.7"/>
			<rect id="XMLID_4_" x="161.4" y="59.1" class="st0" width="12.1" height="4.7"/>
			<rect id="XMLID_3_" x="161.4" y="50.8" class="st0" width="12.1" height="4.7"/>
			<rect id="XMLID_2_" x="161.4" y="42.5" class="st0" width="12.1" height="4.7"/>
		</g>
		<g id="XMLID_437_">
			<g id="XMLID_441_">
				<path id="XMLID_442_" class="st0" d="M177.6,83.1c4.1,0.7,7.3-2.5,7.3-6.6V59.4h-6.4v-3.2h6.4V45.4h3.2c0,9.8,0,21.4,0,31.1
					c0,6.5-4.7,10.3-10.5,9.4V83.1z"/>
			</g>
			<g id="XMLID_438_">
				<path id="XMLID_439_" class="st0" d="M201.8,85.9c-5.8,0.9-10.5-3-10.5-9.4c0-9.8,0-21.4,0-31.1h3.2v10.9h6.4v3.2h-6.4v17.1
					c0,4.1,3.3,7.3,7.3,6.6V85.9z"/>
			</g>
		</g>
	</g>
</g>
<g id="Livello_2_00000026155527690629789730000011135466988748813199_">
</g>
</svg>
